<svg xmlns="http://www.w3.org/2000/svg" width="197.336" height="32.19" viewBox="0 0 197.336 32.19">
    <defs>
        <clipPath id="wzn3i4k0ea">
            <path data-name="Rectangle 60" style="fill:none" d="M0 0h197.336v32.19H0z"/>
        </clipPath>
    </defs>
    <g data-name="Group 195">
        <g data-name="Group 186" style="clip-path:url(#wzn3i4k0ea)">
            <path data-name="Path 206" d="M32.325 10.583h-.382a19.8 19.8 0 0 0-19.77 19.631H5.791A5.789 5.789 0 0 1 0 24.426V13.648a5.8 5.8 0 0 1 2.39-4.686L13.2 1.107a5.788 5.788 0 0 1 6.808 0L30.82 8.962a5.8 5.8 0 0 1 1.5 1.624" transform="translate(0 .001)" style="fill:#50ff70"/>
            <path data-name="Path 207" d="M27.87 9.78v3.982a10.77 10.77 0 0 0-1.261-.07 11.875 11.875 0 0 0-11.86 11.725H10.8A15.832 15.832 0 0 1 26.612 9.729q.636 0 1.261.051" transform="translate(5.33 4.804)" style="fill:#50ff70"/>
            <path data-name="Path 208" d="M25.259 15.129V17a5.772 5.772 0 0 1-.382 2.076 3.782 3.782 0 0 0-.878-.1 3.959 3.959 0 0 0-3.949 3.785 5.761 5.761 0 0 1-.578.028h-3.38A7.916 7.916 0 0 1 24 15.027a7.746 7.746 0 0 1 1.261.1" transform="translate(7.944 7.419)" style="fill:#50ff70"/>
            <path data-name="Path 209" d="M38.825 12.641a.31.31 0 0 1-.224-.1.313.313 0 0 1-.1-.224.572.572 0 0 1 .016-.139l3.624-9.9a.62.62 0 0 1 .191-.3.6.6 0 0 1 .409-.131h2.284a.592.592 0 0 1 .408.131.612.612 0 0 1 .193.3l3.609 9.9a.326.326 0 0 1 .03.139.307.307 0 0 1-.1.224.323.323 0 0 1-.239.1h-1.901a.471.471 0 0 1-.348-.115.589.589 0 0 1-.146-.209l-.6-1.573h-4.114l-.586 1.573a.663.663 0 0 1-.139.209.491.491 0 0 1-.37.115zm3.624-4.117h2.868l-1.449-4.07z"/>
            <path data-name="Path 210" d="M50.079 12.643a.369.369 0 0 1-.385-.385V2.081a.369.369 0 0 1 .385-.385h1.788a.392.392 0 0 1 .27.108.369.369 0 0 1 .115.278v5.164l2.143-2.359a1.222 1.222 0 0 1 .2-.185.53.53 0 0 1 .309-.078h2.066a.327.327 0 0 1 .239.1.323.323 0 0 1 .1.239.368.368 0 0 1-.031.137.287.287 0 0 1-.091.124l-2.774 2.995 3.16 3.842a.36.36 0 0 1 .122.246.325.325 0 0 1-.1.239.344.344 0 0 1-.254.1H55.23a.541.541 0 0 1-.34-.085 2.332 2.332 0 0 1-.2-.176l-2.437-2.934v2.81a.365.365 0 0 1-.115.278.386.386 0 0 1-.27.108z"/>
            <path data-name="Path 211" d="M58.468 12.643a.369.369 0 0 1-.385-.385V5.01a.371.371 0 0 1 .385-.385h1.819a.383.383 0 0 1 .269.109.36.36 0 0 1 .117.276v7.247a.361.361 0 0 1-.117.278.382.382 0 0 1-.269.108z"/>
            <path data-name="Path 212" d="M62.245 12.643a.369.369 0 0 1-.385-.385V2.081a.369.369 0 0 1 .385-.385h1.819a.369.369 0 0 1 .381.385v10.18a.369.369 0 0 1-.385.385z"/>
            <path data-name="Path 213" d="M66.036 12.643a.369.369 0 0 1-.385-.385V2.081a.369.369 0 0 1 .385-.385h1.819a.369.369 0 0 1 .385.385v10.18a.369.369 0 0 1-.385.385z"/>
            <path data-name="Path 214" d="M69.829 12.643a.369.369 0 0 1-.385-.385V5.01a.371.371 0 0 1 .385-.385h1.823a.383.383 0 0 1 .269.109.36.36 0 0 1 .117.276v7.247a.361.361 0 0 1-.117.278.382.382 0 0 1-.269.108z"/>
            <path data-name="Path 215" d="M78.788 12.643a.386.386 0 0 1-.27-.108.36.36 0 0 1-.115-.278V8.943l-3.577-6.6-.03-.085a.2.2 0 0 1-.016-.085.3.3 0 0 1 .1-.223.327.327 0 0 1 .239-.1h1.928a.523.523 0 0 1 .361.117.553.553 0 0 1 .163.208l2.22 3.978 2.22-3.978a.788.788 0 0 1 .178-.208.525.525 0 0 1 .363-.117h1.927a.3.3 0 0 1 .232.1.32.32 0 0 1 .093.223.372.372 0 0 1-.009.085.607.607 0 0 1-.022.085l-3.592 6.6v3.314a.376.376 0 0 1-.108.278.381.381 0 0 1-.278.108z"/>
            <path data-name="Path 216" d="M87.746 12.797a3.391 3.391 0 0 1-1.489-.319 2.678 2.678 0 0 1-1.04-.856 2.039 2.039 0 0 1-.385-1.217 2.018 2.018 0 0 1 .895-1.734 5.5 5.5 0 0 1 2.373-.872l1.928-.291v-.215a1.347 1.347 0 0 0-.232-.848 1.034 1.034 0 0 0-.848-.293 1.313 1.313 0 0 0-.7.169 1.209 1.209 0 0 0-.424.463.439.439 0 0 1-.385.2H85.71a.335.335 0 0 1-.261-.1.291.291 0 0 1-.078-.239 1.316 1.316 0 0 1 .208-.639 2.679 2.679 0 0 1 .641-.717 3.512 3.512 0 0 1 1.11-.586 5.057 5.057 0 0 1 1.634-.232 5.53 5.53 0 0 1 1.712.232 2.984 2.984 0 0 1 1.149.647 2.64 2.64 0 0 1 .656.98 3.446 3.446 0 0 1 .215 1.24v4.687a.363.363 0 0 1-.115.278.381.381 0 0 1-.27.109h-1.79a.371.371 0 0 1-.385-.387v-.539a2.224 2.224 0 0 1-.539.539 2.762 2.762 0 0 1-.795.393 3.421 3.421 0 0 1-1.056.148m.724-1.758a1.7 1.7 0 0 0 .81-.193 1.35 1.35 0 0 0 .571-.6 2.274 2.274 0 0 0 .208-1.026v-.218l-1.31.232a2.48 2.48 0 0 0-1.058.378.743.743 0 0 0-.33.594.674.674 0 0 0 .154.447.99.99 0 0 0 .4.285 1.456 1.456 0 0 0 .556.1"/>
            <path data-name="Path 217" d="M97.289 16.034a1.928 1.928 0 0 1-.739-.139 1.091 1.091 0 0 1-.478-.324.221.221 0 0 1 0-.323l.293-.248q.139-.123.237-.076c.067.03.149.075.248.13a.891.891 0 0 0 .439.085.529.529 0 0 0 .378-.139.434.434 0 0 0 .146-.323.44.44 0 0 0-.139-.333.542.542 0 0 0-.385-.13 1.042 1.042 0 0 0-.332.054 1.129 1.129 0 0 1-.293.061.325.325 0 0 1-.239-.084l-.293-.309a.256.256 0 0 1-.085-.2.874.874 0 0 1 .1-.293l.293-.695a4.957 4.957 0 0 1-1.751-.478 2.756 2.756 0 0 1-.978-.786 1.477 1.477 0 0 1-.324-.724.328.328 0 0 1 .11-.282.376.376 0 0 1 .261-.117h1.68a.281.281 0 0 1 .093.016.4.4 0 0 1 .109.061 2.3 2.3 0 0 1 .415.27 2.213 2.213 0 0 0 .471.285 1.572 1.572 0 0 0 .656.122 1.425 1.425 0 0 0 .724-.169.554.554 0 0 0 .293-.509.6.6 0 0 0-.139-.408 1.376 1.376 0 0 0-.563-.317 8.351 8.351 0 0 0-1.271-.309 6.3 6.3 0 0 1-1.4-.484 2.351 2.351 0 0 1-.925-.787 2.085 2.085 0 0 1-.324-1.18 2.03 2.03 0 0 1 .4-1.187 2.879 2.879 0 0 1 1.171-.932 4.435 4.435 0 0 1 1.9-.363 5.127 5.127 0 0 1 1.549.209 3.933 3.933 0 0 1 1.11.532 2.736 2.736 0 0 1 .687.663 1.254 1.254 0 0 1 .246.617.333.333 0 0 1-.093.269.327.327 0 0 1-.246.117h-1.624a.265.265 0 0 1-.124-.024.726.726 0 0 1-.091-.054 1.855 1.855 0 0 1-.37-.246 2.281 2.281 0 0 0-.432-.278 1.379 1.379 0 0 0-.617-.124 1.021 1.021 0 0 0-.648.185.588.588 0 0 0-.232.478.6.6 0 0 0 .131.37 1.147 1.147 0 0 0 .539.308 10.833 10.833 0 0 0 1.273.309 4.807 4.807 0 0 1 1.7.548 2.293 2.293 0 0 1 .893.878 2.244 2.244 0 0 1 .263 1.056 2.107 2.107 0 0 1-.926 1.766 4.711 4.711 0 0 1-2.666.747l-.309.617a.907.907 0 0 1 .254-.07 1.986 1.986 0 0 1 .255-.022 1.13 1.13 0 0 1 .886.37 1.4 1.4 0 0 1 .332.971 1.333 1.333 0 0 1-.393.98 1.5 1.5 0 0 1-1.1.393"/>
            <path data-name="Path 218" d="M104.136 12.797a3.39 3.39 0 0 1-1.489-.319 2.678 2.678 0 0 1-1.04-.856 2.039 2.039 0 0 1-.385-1.217 2.018 2.018 0 0 1 .895-1.734 5.5 5.5 0 0 1 2.373-.872l1.928-.293v-.213a1.347 1.347 0 0 0-.232-.848 1.034 1.034 0 0 0-.848-.293 1.313 1.313 0 0 0-.7.169 1.209 1.209 0 0 0-.424.463.439.439 0 0 1-.385.2H102.1a.335.335 0 0 1-.261-.1.291.291 0 0 1-.078-.239 1.316 1.316 0 0 1 .208-.639 2.679 2.679 0 0 1 .641-.717 3.512 3.512 0 0 1 1.11-.586 5.057 5.057 0 0 1 1.635-.232 5.53 5.53 0 0 1 1.712.232 2.984 2.984 0 0 1 1.149.647 2.641 2.641 0 0 1 .656.98 3.446 3.446 0 0 1 .215 1.24v4.687a.363.363 0 0 1-.115.278.381.381 0 0 1-.27.109h-1.791a.371.371 0 0 1-.385-.387v-.539a2.224 2.224 0 0 1-.539.539 2.762 2.762 0 0 1-.795.393 3.421 3.421 0 0 1-1.056.148m.724-1.758a1.7 1.7 0 0 0 .81-.193 1.35 1.35 0 0 0 .571-.6 2.273 2.273 0 0 0 .208-1.026v-.218l-1.31.232a2.48 2.48 0 0 0-1.058.378.743.743 0 0 0-.33.594.674.674 0 0 0 .154.447.989.989 0 0 0 .4.285 1.456 1.456 0 0 0 .556.1"/>
            <path data-name="Path 219" d="M110.594 12.643a.369.369 0 0 1-.385-.385V5.01a.371.371 0 0 1 .385-.385h1.68a.371.371 0 0 1 .385.385v.524a2.769 2.769 0 0 1 .863-.732 2.724 2.724 0 0 1 1.311-.332 2.412 2.412 0 0 1 2.436 1.341 2.752 2.752 0 0 1 1.017-.963 3 3 0 0 1 2.89-.015 2.6 2.6 0 0 1 1.026 1.11 4.243 4.243 0 0 1 .388 1.935v4.38a.361.361 0 0 1-.117.278.385.385 0 0 1-.269.108h-1.789a.4.4 0 0 1-.285-.108.36.36 0 0 1-.115-.278V7.987a1.994 1.994 0 0 0-.154-.856.982.982 0 0 0-.417-.456 1.269 1.269 0 0 0-.6-.139 1.184 1.184 0 0 0-.547.139 1.009 1.009 0 0 0-.432.456 1.879 1.879 0 0 0-.161.856v4.27a.371.371 0 0 1-.385.385h-1.794a.369.369 0 0 1-.385-.385v-4.27a1.833 1.833 0 0 0-.169-.856 1.084 1.084 0 0 0-.432-.456 1.238 1.238 0 0 0-.587-.139 1.179 1.179 0 0 0-.547.139 1 1 0 0 0-.432.456 1.837 1.837 0 0 0-.163.839v4.288a.365.365 0 0 1-.115.278.4.4 0 0 1-.285.108z"/>
            <path data-name="Path 220" d="M130.884 16.034a1.975 1.975 0 0 1-.756-.139 1.109 1.109 0 0 1-.478-.324.213.213 0 0 1 .016-.323l.276-.248c.093-.082.173-.108.239-.076s.152.075.255.13a.936.936 0 0 0 .447.085.5.5 0 0 0 .37-.139.456.456 0 0 0 0-.656.521.521 0 0 0-.37-.13 1.016 1.016 0 0 0-.339.054 1.044 1.044 0 0 1-.285.061.377.377 0 0 1-.254-.084l-.293-.309a.252.252 0 0 1-.087-.2.884.884 0 0 1 .1-.293l.308-.709a4.949 4.949 0 0 1-2.012-.648 3.5 3.5 0 0 1-1.3-1.379 4.946 4.946 0 0 1-.524-2.09q-.016-.632-.015-1.356c0-.484 0-.945.015-1.388a4.591 4.591 0 0 1 .648-2.275 3.714 3.714 0 0 1 1.634-1.417 5.851 5.851 0 0 1 2.482-.487 6.61 6.61 0 0 1 1.881.255 4.741 4.741 0 0 1 1.512.739 3.47 3.47 0 0 1 1.008 1.173 3.415 3.415 0 0 1 .379 1.549.26.26 0 0 1-.087.232.337.337 0 0 1-.237.093h-2.082a.487.487 0 0 1-.308-.085.648.648 0 0 1-.185-.317 1.778 1.778 0 0 0-.7-1.117 2.235 2.235 0 0 0-1.195-.3 1.864 1.864 0 0 0-1.341.471 2.23 2.23 0 0 0-.539 1.564q-.047 1.266 0 2.59a2.234 2.234 0 0 0 .537 1.565 1.864 1.864 0 0 0 1.341.471 2.221 2.221 0 0 0 1.2-.309 1.73 1.73 0 0 0 .695-1.11.552.552 0 0 1 .176-.315.527.527 0 0 1 .317-.085h2.082a.337.337 0 0 1 .237.093.259.259 0 0 1 .087.232 3.415 3.415 0 0 1-.379 1.549 3.484 3.484 0 0 1-1.008 1.173 4.71 4.71 0 0 1-1.512.739 6.664 6.664 0 0 1-1.881.254l-.309.617a.907.907 0 0 1 .254-.07 1.986 1.986 0 0 1 .255-.022 1.13 1.13 0 0 1 .886.37 1.4 1.4 0 0 1 .332.971 1.317 1.317 0 0 1-.4.98 1.5 1.5 0 0 1-1.095.393"/>
            <path data-name="Path 221" d="M140.368 12.797a5.115 5.115 0 0 1-2.182-.417 3.061 3.061 0 0 1-1.358-1.192 3.981 3.981 0 0 1-.53-1.858c-.012-.2-.016-.439-.016-.7s0-.491.016-.687a3.8 3.8 0 0 1 .554-1.866 3.205 3.205 0 0 1 1.38-1.189 5.717 5.717 0 0 1 4.285 0 3.205 3.205 0 0 1 1.38 1.186 3.816 3.816 0 0 1 .556 1.866c.01.2.015.424.015.687s0 .5-.015.7a3.981 3.981 0 0 1-.532 1.858 3.053 3.053 0 0 1-1.358 1.195 5.146 5.146 0 0 1-2.2.417m-2.309-9.509a.317.317 0 0 1-.246-.1.361.361 0 0 1-.093-.254v-1.4a.364.364 0 0 1 .093-.254.317.317 0 0 1 .246-.1h1.419a.342.342 0 0 1 .354.354v1.4a.342.342 0 0 1-.354.354zm2.314 7.633a1.182 1.182 0 0 0 1.008-.417 2.25 2.25 0 0 0 .366-1.253c.01-.154.016-.36.016-.617s-.006-.463-.016-.617a2.259 2.259 0 0 0-.363-1.241 1.4 1.4 0 0 0-2.01 0 2.155 2.155 0 0 0-.355 1.241c-.01.154-.015.36-.015.617s0 .463.015.617a2.148 2.148 0 0 0 .355 1.249 1.187 1.187 0 0 0 1 .417m.873-7.629a.34.34 0 0 1-.354-.354v-1.4a.349.349 0 0 1 .1-.254.346.346 0 0 1 .255-.1h1.419a.342.342 0 0 1 .354.354v1.4a.342.342 0 0 1-.354.354z"/>
            <path data-name="Path 222" d="M145.424 12.643a.386.386 0 0 1-.27-.108.36.36 0 0 1-.115-.278v-1.2a.585.585 0 0 1 .069-.293 1.076 1.076 0 0 1 .177-.235l3.609-3.916h-3.331a.4.4 0 0 1-.285-.108.36.36 0 0 1-.115-.278V5.01a.359.359 0 0 1 .115-.276.4.4 0 0 1 .285-.109h6.2a.387.387 0 0 1 .27.109.365.365 0 0 1 .117.276v1.312a.5.5 0 0 1-.063.246 1.381 1.381 0 0 1-.154.217l-3.515 3.869h3.654a.382.382 0 0 1 .278.109.375.375 0 0 1 .108.276v1.219a.376.376 0 0 1-.108.278.381.381 0 0 1-.278.108z"/>
            <path data-name="Path 223" d="M156.201 12.797a3.055 3.055 0 0 1-1.567-.4 2.714 2.714 0 0 1-1.069-1.179 4.243 4.243 0 0 1-.387-1.9v-4.3a.387.387 0 0 1 .108-.278.379.379 0 0 1 .279-.108h1.928a.371.371 0 0 1 .275.108.382.382 0 0 1 .109.278V9.22q0 1.512 1.358 1.512a1.335 1.335 0 0 0 1.008-.393 1.549 1.549 0 0 0 .384-1.119V5.011a.368.368 0 0 1 .384-.385h1.927a.371.371 0 0 1 .387.385v7.247a.373.373 0 0 1-.387.385h-1.791a.381.381 0 0 1-.27-.109.351.351 0 0 1-.117-.276v-.587a2.524 2.524 0 0 1-1.041.841 3.7 3.7 0 0 1-1.518.285m-1.249-9.509a.317.317 0 0 1-.246-.1.362.362 0 0 1-.094-.254v-1.4a.365.365 0 0 1 .094-.254.317.317 0 0 1 .246-.1h1.417a.342.342 0 0 1 .354.354v1.4a.336.336 0 0 1-.1.254.342.342 0 0 1-.254.1zm3.192 0a.34.34 0 0 1-.355-.354v-1.4a.34.34 0 0 1 .355-.354h1.419a.339.339 0 0 1 .252.1.346.346 0 0 1 .1.254v1.4a.343.343 0 0 1-.1.254.339.339 0 0 1-.252.1z"/>
            <path data-name="Path 224" d="M162.907 12.643a.369.369 0 0 1-.385-.385V5.01a.371.371 0 0 1 .385-.385h1.68a.371.371 0 0 1 .385.385v.524a2.752 2.752 0 0 1 .863-.732 2.724 2.724 0 0 1 1.311-.332 2.412 2.412 0 0 1 2.436 1.341 2.752 2.752 0 0 1 1.017-.963 3 3 0 0 1 2.89-.015 2.6 2.6 0 0 1 1.026 1.11 4.243 4.243 0 0 1 .385 1.934v4.381a.361.361 0 0 1-.117.278.385.385 0 0 1-.269.108h-1.789a.4.4 0 0 1-.285-.108.36.36 0 0 1-.115-.278V7.987a1.994 1.994 0 0 0-.154-.856.982.982 0 0 0-.417-.456 1.269 1.269 0 0 0-.6-.139 1.184 1.184 0 0 0-.547.139 1.009 1.009 0 0 0-.432.456 1.879 1.879 0 0 0-.161.856v4.27a.371.371 0 0 1-.385.385h-1.789a.369.369 0 0 1-.385-.385v-4.27a1.833 1.833 0 0 0-.169-.856 1.084 1.084 0 0 0-.432-.456 1.238 1.238 0 0 0-.587-.139 1.179 1.179 0 0 0-.547.139 1 1 0 0 0-.432.456 1.837 1.837 0 0 0-.163.839v4.288a.365.365 0 0 1-.115.278.4.4 0 0 1-.285.108z"/>
            <path data-name="Path 225" d="M176.398 12.643a.369.369 0 0 1-.385-.385V2.081a.369.369 0 0 1 .385-.385h1.819a.369.369 0 0 1 .385.385v10.18a.369.369 0 0 1-.385.385z"/>
            <path data-name="Path 226" d="M183.505 12.797a4.122 4.122 0 0 1-2.9-.987 3.906 3.906 0 0 1-1.124-2.932v-.537a4.485 4.485 0 0 1 .547-2.088 3.317 3.317 0 0 1 1.392-1.326 4.49 4.49 0 0 1 2.075-.456 4.269 4.269 0 0 1 2.243.539 3.442 3.442 0 0 1 1.329 1.468 4.805 4.805 0 0 1 .447 2.112v.37a.361.361 0 0 1-.117.278.379.379 0 0 1-.269.108h-4.934v.108a2.562 2.562 0 0 0 .154.817 1.25 1.25 0 0 0 .432.586 1.157 1.157 0 0 0 .709.217 1.181 1.181 0 0 0 .517-.1 1.415 1.415 0 0 0 .347-.232 2.587 2.587 0 0 0 .217-.224.8.8 0 0 1 .223-.191.674.674 0 0 1 .27-.039h1.912a.381.381 0 0 1 .254.085.255.255 0 0 1 .085.237 1.375 1.375 0 0 1-.261.633 3.2 3.2 0 0 1-.718.732 3.9 3.9 0 0 1-1.179.593 5.344 5.344 0 0 1-1.65.232m-1.31-4.98h2.6v-.035a2.318 2.318 0 0 0-.146-.863 1.193 1.193 0 0 0-.447-.571 1.266 1.266 0 0 0-.717-.2 1.2 1.2 0 0 0-.7.2 1.285 1.285 0 0 0-.439.571 2.227 2.227 0 0 0-.154.863z"/>
            <path data-name="Path 227" d="M188.733 12.643a.369.369 0 0 1-.385-.385V5.01a.385.385 0 0 1 .108-.269.361.361 0 0 1 .278-.117h1.773a.361.361 0 0 1 .278.117.385.385 0 0 1 .108.269v.619a2.891 2.891 0 0 1 .995-.739 3.116 3.116 0 0 1 1.3-.263h.678a.387.387 0 0 1 .27.109.364.364 0 0 1 .115.276V6.6a.393.393 0 0 1-.385.385h-1.5a1.325 1.325 0 0 0-.98.347 1.322 1.322 0 0 0-.347.978v3.948a.365.365 0 0 1-.115.278.406.406 0 0 1-.285.108z"/>
            <path data-name="Path 228" d="M195.1 3.469a.369.369 0 0 1-.385-.385V1.713a.4.4 0 0 1 .108-.285.361.361 0 0 1 .278-.117h1.834a.4.4 0 0 1 .4.4v1.373a.365.365 0 0 1-.115.278.4.4 0 0 1-.285.108zm.015 9.174a.369.369 0 0 1-.385-.385V5.011a.371.371 0 0 1 .385-.385h1.819a.383.383 0 0 1 .269.109.36.36 0 0 1 .117.276v7.247a.361.361 0 0 1-.117.278.382.382 0 0 1-.269.108z"/>
            <path data-name="Path 229" d="M39.827 29.26a.376.376 0 0 1-.278-.108.381.381 0 0 1-.108-.278v-10.02a.371.371 0 0 1 .385-.387h1.943a.373.373 0 0 1 .385.387v3.423l2.851-3.516a.753.753 0 0 1 .208-.193.689.689 0 0 1 .394-.1h2.22a.3.3 0 0 1 .232.1.321.321 0 0 1 .093.224.294.294 0 0 1-.061.185l-3.684 4.657 3.978 5.119a.252.252 0 0 1 .061.185.344.344 0 0 1-.324.323h-2.3a.636.636 0 0 1-.424-.124 1.5 1.5 0 0 1-.193-.184l-3.049-3.809v3.731a.382.382 0 0 1-.109.278.375.375 0 0 1-.276.108z"/>
            <path data-name="Path 230" d="M52.653 29.414a5.138 5.138 0 0 1-2.182-.415 3.06 3.06 0 0 1-1.356-1.2 3.953 3.953 0 0 1-.532-1.857c-.01-.206-.015-.439-.015-.7s0-.49.015-.686a3.775 3.775 0 0 1 .556-1.866 3.2 3.2 0 0 1 1.379-1.186 5.7 5.7 0 0 1 4.287 0 3.2 3.2 0 0 1 1.38 1.186 3.79 3.79 0 0 1 .554 1.866 14.257 14.257 0 0 1 0 1.386 3.953 3.953 0 0 1-.532 1.857 3.052 3.052 0 0 1-1.356 1.2 5.177 5.177 0 0 1-2.2.415m0-1.881a1.184 1.184 0 0 0 1.01-.415 2.276 2.276 0 0 0 .363-1.25c.009-.154.015-.36.015-.617s-.006-.462-.015-.617a2.288 2.288 0 0 0-.363-1.241 1.408 1.408 0 0 0-2.012 0 2.159 2.159 0 0 0-.354 1.241c-.01.155-.016.361-.016.617s.006.463.016.617a2.15 2.15 0 0 0 .354 1.25 1.19 1.19 0 0 0 1 .415"/>
            <path data-name="Path 231" d="M58.035 29.26a.376.376 0 0 1-.278-.108.381.381 0 0 1-.103-.282v-7.241a.376.376 0 0 1 .108-.278.371.371 0 0 1 .278-.109h1.773a.371.371 0 0 1 .278.109.376.376 0 0 1 .108.278v.586a3.2 3.2 0 0 1 1.049-.8 3.367 3.367 0 0 1 1.527-.326 3.059 3.059 0 0 1 1.58.4 2.768 2.768 0 0 1 1.073 1.181 4.186 4.186 0 0 1 .394 1.9v4.3a.365.365 0 0 1-.117.278.385.385 0 0 1-.269.108h-1.943a.386.386 0 0 1-.27-.108.369.369 0 0 1-.115-.278v-4.2a1.644 1.644 0 0 0-.347-1.119 1.3 1.3 0 0 0-1.026-.393 1.339 1.339 0 0 0-1.01.393 1.555 1.555 0 0 0-.378 1.119v4.2a.369.369 0 0 1-.115.278.386.386 0 0 1-.27.108z"/>
            <path data-name="Path 232" d="M70.231 29.416a5.653 5.653 0 0 1-1.7-.224 3.924 3.924 0 0 1-1.141-.547 2.523 2.523 0 0 1-.659-.674 1.341 1.341 0 0 1-.232-.594.331.331 0 0 1 .108-.285.384.384 0 0 1 .263-.115h1.757a.153.153 0 0 1 .078.016.67.67 0 0 1 .093.061 2.516 2.516 0 0 1 .4.27 2.456 2.456 0 0 0 .463.285 1.5 1.5 0 0 0 .632.122 1.417 1.417 0 0 0 .724-.17.552.552 0 0 0 .294-.508.6.6 0 0 0-.139-.409 1.387 1.387 0 0 0-.563-.315 8.379 8.379 0 0 0-1.273-.309 6.262 6.262 0 0 1-1.4-.485 2.329 2.329 0 0 1-.925-.787 2.066 2.066 0 0 1-.324-1.179 2.031 2.031 0 0 1 .4-1.187 2.9 2.9 0 0 1 1.173-.934 4.456 4.456 0 0 1 1.9-.361 5.2 5.2 0 0 1 1.55.208 4.014 4.014 0 0 1 1.11.532 2.731 2.731 0 0 1 .686.665 1.24 1.24 0 0 1 .246.617.354.354 0 0 1-.339.384h-1.6a.356.356 0 0 1-.135-.022.722.722 0 0 1-.108-.054 1.969 1.969 0 0 1-.37-.246 2.123 2.123 0 0 0-.432-.278 1.371 1.371 0 0 0-.617-.122 1.007 1.007 0 0 0-.647.185.583.583 0 0 0-.232.476.6.6 0 0 0 .13.37 1.167 1.167 0 0 0 .541.308 10.757 10.757 0 0 0 1.273.309 4.8 4.8 0 0 1 1.7.547 2.311 2.311 0 0 1 .895.88 2.247 2.247 0 0 1 .261 1.056 2.087 2.087 0 0 1-.439 1.31 2.806 2.806 0 0 1-1.3.886 6.137 6.137 0 0 1-2.1.317"/>
            <path data-name="Path 233" d="M78.639 29.414a5.138 5.138 0 0 1-2.182-.415 3.06 3.06 0 0 1-1.356-1.2 3.953 3.953 0 0 1-.532-1.857c-.01-.206-.015-.439-.015-.7s0-.49.015-.686a3.775 3.775 0 0 1 .556-1.866 3.2 3.2 0 0 1 1.379-1.186 5.7 5.7 0 0 1 4.287 0 3.2 3.2 0 0 1 1.38 1.186 3.79 3.79 0 0 1 .554 1.866 14.257 14.257 0 0 1 0 1.386 3.952 3.952 0 0 1-.532 1.857 3.052 3.052 0 0 1-1.356 1.2 5.177 5.177 0 0 1-2.2.415m0-1.881a1.184 1.184 0 0 0 1.002-.415 2.276 2.276 0 0 0 .363-1.25c.009-.154.015-.36.015-.617s-.006-.462-.015-.617a2.288 2.288 0 0 0-.363-1.241 1.408 1.408 0 0 0-2.012 0 2.159 2.159 0 0 0-.354 1.241c-.01.155-.016.361-.016.617s.006.463.016.617a2.151 2.151 0 0 0 .354 1.25 1.19 1.19 0 0 0 1 .415"/>
            <path data-name="Path 234" d="M84.014 29.26a.376.376 0 0 1-.278-.108.381.381 0 0 1-.108-.278v-7.245a.383.383 0 0 1 .108-.27.361.361 0 0 1 .278-.117h1.773a.361.361 0 0 1 .278.117.383.383 0 0 1 .108.27v.617a2.876 2.876 0 0 1 .995-.741 3.116 3.116 0 0 1 1.3-.263h.678a.381.381 0 0 1 .27.109.365.365 0 0 1 .115.278v1.592a.4.4 0 0 1-.385.385h-1.5a1.206 1.206 0 0 0-1.326 1.326v3.946a.369.369 0 0 1-.115.278.406.406 0 0 1-.285.108z"/>
            <path data-name="Path 235" d="M93.306 29.416a5.653 5.653 0 0 1-1.7-.224 3.924 3.924 0 0 1-1.141-.547 2.523 2.523 0 0 1-.654-.674 1.341 1.341 0 0 1-.232-.594.331.331 0 0 1 .108-.285.384.384 0 0 1 .263-.115h1.756a.153.153 0 0 1 .078.016.67.67 0 0 1 .093.061 2.517 2.517 0 0 1 .4.27 2.456 2.456 0 0 0 .463.285 1.5 1.5 0 0 0 .632.122 1.417 1.417 0 0 0 .724-.17.552.552 0 0 0 .294-.508.6.6 0 0 0-.139-.409 1.387 1.387 0 0 0-.563-.315 8.379 8.379 0 0 0-1.273-.309 6.262 6.262 0 0 1-1.4-.485 2.329 2.329 0 0 1-.925-.787 2.066 2.066 0 0 1-.324-1.179 2.031 2.031 0 0 1 .4-1.187 2.9 2.9 0 0 1 1.173-.934 4.456 4.456 0 0 1 1.9-.361 5.2 5.2 0 0 1 1.55.208 4.014 4.014 0 0 1 1.11.532 2.731 2.731 0 0 1 .686.665 1.24 1.24 0 0 1 .246.617.354.354 0 0 1-.339.384h-1.6a.356.356 0 0 1-.124-.022.721.721 0 0 1-.108-.054 1.969 1.969 0 0 1-.37-.246 2.123 2.123 0 0 0-.432-.278 1.371 1.371 0 0 0-.617-.122 1.007 1.007 0 0 0-.647.185.583.583 0 0 0-.232.476.6.6 0 0 0 .13.37 1.167 1.167 0 0 0 .541.308 10.757 10.757 0 0 0 1.273.309 4.8 4.8 0 0 1 1.7.547 2.311 2.311 0 0 1 .895.88 2.246 2.246 0 0 1 .261 1.056 2.087 2.087 0 0 1-.439 1.31 2.806 2.806 0 0 1-1.3.886 6.137 6.137 0 0 1-2.1.317"/>
            <path data-name="Path 236" d="M98.291 20.087a.371.371 0 0 1-.385-.387v-1.374a.4.4 0 0 1 .108-.285.365.365 0 0 1 .277-.115h1.834a.393.393 0 0 1 .4.4v1.371a.365.365 0 0 1-.115.278.4.4 0 0 1-.285.109zm.015 9.173a.376.376 0 0 1-.278-.108.381.381 0 0 1-.108-.278v-7.248a.376.376 0 0 1 .108-.278.371.371 0 0 1 .278-.109h1.819a.377.377 0 0 1 .269.109.361.361 0 0 1 .117.278v7.246a.365.365 0 0 1-.117.278.382.382 0 0 1-.269.108z"/>
            <path data-name="Path 237" d="M103.193 32.191a.317.317 0 0 1-.324-.324.79.79 0 0 1 .007-.085.387.387 0 0 1 .039-.115l1.2-2.9-2.96-7a.5.5 0 0 1-.046-.185.506.506 0 0 1 .124-.237.3.3 0 0 1 .232-.1h1.758a.408.408 0 0 1 .3.1.471.471 0 0 1 .131.223l1.773 4.487 1.8-4.487a.845.845 0 0 1 .163-.223.405.405 0 0 1 .3-.1h1.728a.326.326 0 0 1 .239.1.3.3 0 0 1 .1.223.592.592 0 0 1-.046.2l-4.363 10.1a.6.6 0 0 1-.154.224.442.442 0 0 1-.309.1z"/>
            <path data-name="Path 238" d="M113.231 29.416a3.044 3.044 0 0 1-1.565-.4 2.738 2.738 0 0 1-1.071-1.18 4.264 4.264 0 0 1-.385-1.9v-4.3a.376.376 0 0 1 .108-.278.371.371 0 0 1 .278-.109h1.929a.371.371 0 0 1 .278.109.376.376 0 0 1 .108.278v4.208q0 1.512 1.358 1.512a1.333 1.333 0 0 0 1.008-.393 1.549 1.549 0 0 0 .379-1.119v-4.213a.376.376 0 0 1 .108-.278.371.371 0 0 1 .278-.109h1.927a.371.371 0 0 1 .385.387v7.246a.369.369 0 0 1-.385.385h-1.793a.383.383 0 0 1-.27-.108.364.364 0 0 1-.115-.278v-.586a2.533 2.533 0 0 1-1.043.839 3.708 3.708 0 0 1-1.518.285"/>
            <path data-name="Path 239" d="M119.937 29.26a.376.376 0 0 1-.278-.108.381.381 0 0 1-.108-.278v-7.245a.376.376 0 0 1 .108-.278.371.371 0 0 1 .278-.109h1.676a.371.371 0 0 1 .278.109.376.376 0 0 1 .108.278v.524a2.747 2.747 0 0 1 2.175-1.065 2.408 2.408 0 0 1 2.439 1.343 2.744 2.744 0 0 1 1.017-.965 3.01 3.01 0 0 1 2.89-.016 2.609 2.609 0 0 1 1.026 1.111 4.245 4.245 0 0 1 .385 1.936v4.373a.365.365 0 0 1-.117.278.385.385 0 0 1-.269.108h-1.787a.4.4 0 0 1-.285-.108.364.364 0 0 1-.115-.278V24.6a1.989 1.989 0 0 0-.154-.856.978.978 0 0 0-.417-.454 1.27 1.27 0 0 0-.6-.14 1.186 1.186 0 0 0-.547.14 1 1 0 0 0-.432.454 1.875 1.875 0 0 0-.161.856v4.27a.382.382 0 0 1-.109.278.375.375 0 0 1-.276.108h-1.791a.376.376 0 0 1-.278-.108.381.381 0 0 1-.108-.278V24.6a1.829 1.829 0 0 0-.169-.856 1.079 1.079 0 0 0-.432-.454 1.239 1.239 0 0 0-.587-.14 1.181 1.181 0 0 0-.547.14 1 1 0 0 0-.432.454 1.835 1.835 0 0 0-.163.841v4.285a.369.369 0 0 1-.115.278.4.4 0 0 1-.285.108z"/>
            <path data-name="Path 240" d="M135.987 29.416a3.044 3.044 0 0 1-1.565-.4 2.738 2.738 0 0 1-1.071-1.18 4.264 4.264 0 0 1-.385-1.9v-4.3a.376.376 0 0 1 .108-.278.371.371 0 0 1 .278-.109h1.927a.371.371 0 0 1 .278.109.376.376 0 0 1 .108.278v4.208q0 1.512 1.358 1.512a1.333 1.333 0 0 0 1.008-.393 1.549 1.549 0 0 0 .379-1.119v-4.213a.376.376 0 0 1 .108-.278.371.371 0 0 1 .278-.109h1.927a.371.371 0 0 1 .385.387v7.246a.369.369 0 0 1-.385.385h-1.791a.383.383 0 0 1-.27-.108.364.364 0 0 1-.115-.278v-.586a2.533 2.533 0 0 1-1.043.839 3.708 3.708 0 0 1-1.518.285"/>
        </g>
    </g>
</svg>
