<svg xmlns="http://www.w3.org/2000/svg" xmlns:xlink="http://www.w3.org/1999/xlink" width="70" height="93.333" viewBox="0 0 70 93.333"><defs><clipPath id="a"><path d="M0,0H70V93.333H0Z" fill="none"/></clipPath></defs><g clip-path="url(#a)"><path d="M124.673,105.121a13.655,13.655,0,1,1-13.655-13.655,13.655,13.655,0,0,1,13.655,13.655" transform="translate(-76.012 -71.406)" fill="#fff" fill-rule="evenodd"/><path d="M24.733,351.357v3.587a1.8,1.8,0,1,0,0-3.587m0,5.731v3.733a1.9,1.9,0,0,0,2-1.941,1.867,1.867,0,0,0-2-1.786M27.02,355.9a3.263,3.263,0,0,1,2.156,3.313,4.045,4.045,0,0,1-3.948,3.833h-2.94V349.077h2.439a3.864,3.864,0,0,1,4.259,3.587,3.2,3.2,0,0,1-1.963,3.239M0,349.07H5.911v2.315H4.144v11.657H1.7V351.385H0Zm11.156-1.17v-2.119h2.091V347.9Zm-.775,1.17h2.445v10.873a1.045,1.045,0,0,0,2.091,0V349.07h2.445v10.721a3.491,3.491,0,0,1-6.981,0Zm4.135-1.17v-2.119h2.091V347.9Zm26.255,1.17h5.9v2.315H44.9v11.657H42.457V351.385h-1.7Zm-7-3.288H36.22V347.9H33.774Zm0,3.288H36.22v13.972H33.774Zm20.708,4.667-.765,4.356h1.528Zm-3.957,9.3,2.8-13.972h2.287l2.8,13.972H56.093l-.482-2.744H53.3l-.482,2.744ZM67.25,349.067H70l-2.4,5.874-.044.059L70,363.089l-2.775-.04L65.719,357.9l-.516,1.381v3.765H62.757V349.077H65.2v5.743Z" transform="translate(0 -269.949)" fill="#111" fill-rule="evenodd"/><path d="M0,95.718H30.756a13.437,13.437,0,1,0,8.484,0H70L35,144.562Z" transform="translate(0 -74.727)" fill="#111" fill-rule="evenodd"/><path d="M84.864,7.557a13.437,13.437,0,1,1-13.44,13.437A13.436,13.436,0,0,1,84.864,7.557m0-3.78a17.214,17.214,0,1,0,17.214,17.214A17.214,17.214,0,0,0,84.864,3.777m0,2.007a15.207,15.207,0,1,0,15.207,15.207A15.207,15.207,0,0,0,84.864,5.784m0-5.784a20.991,20.991,0,1,0,20.991,20.991A20.991,20.991,0,0,0,84.864,0m0,1.182a19.812,19.812,0,1,0,19.812,19.812A19.812,19.812,0,0,0,84.864,1.182" transform="translate(-49.864 0)" fill="#db2007" fill-rule="evenodd"/><path d="M105.858,95.718a20.956,20.956,0,0,1-8.108,16.573,13.376,13.376,0,0,0,.414-1.888,19.759,19.759,0,0,0,6.515-14.684h1.182ZM71.982,112.291a20.956,20.956,0,0,1-8.108-16.573h1.182A19.759,19.759,0,0,0,71.571,110.4a13.38,13.38,0,0,0,.414,1.888m30.1-16.573h-2.007a15.136,15.136,0,0,1-2.5,8.363,13.377,13.377,0,0,1,.622,2.554,17.142,17.142,0,0,0,3.9-10.917ZM71.555,106.635a13.376,13.376,0,0,1,.622-2.554,15.136,15.136,0,0,1-2.5-8.363H67.667a17.142,17.142,0,0,0,3.9,10.917M98.327,95.718H89.108a13.477,13.477,0,0,1,7.588,6.375A13.378,13.378,0,0,0,98.3,95.718Zm-25.265,6.375a13.477,13.477,0,0,1,7.588-6.375H71.422a13.378,13.378,0,0,0,1.605,6.375" transform="translate(-49.865 -74.727)" fill="#fff" fill-rule="evenodd"/></g></svg>