<svg xmlns="http://www.w3.org/2000/svg" xmlns:xlink="http://www.w3.org/1999/xlink" width="90" height="90" viewBox="0 0 90 90"><defs><clipPath id="a"><path d="M0,0H90V90H0Z" fill="none"/></clipPath></defs><g clip-path="url(#a)"><path d="M399.415,400.683H397.8a.357.357,0,0,1-.2-.627l.462-.4a2.129,2.129,0,0,1,1.392-.528h1.611a.357.357,0,0,1,.207.627l-.462.4a2.131,2.131,0,0,1-1.4.528" transform="translate(-323.047 -324.393)" fill="#cc0018"/><path d="M410.574,388.1l-1.611.111a.357.357,0,0,1-.246-.6l.435-.432a2.1,2.1,0,0,1,1.35-.621l1.608-.114a.354.354,0,0,1,.249.6l-.432.432a2.126,2.126,0,0,1-1.353.624" transform="translate(-332.097 -314.073)" fill="#cc0018"/><path d="M420.924,374.811l-1.6.225a.357.357,0,0,1-.3-.6l.4-.459a2.118,2.118,0,0,1,1.305-.714l1.6-.225a.354.354,0,0,1,.3.6l-.4.462a2.131,2.131,0,0,1-1.305.714" transform="translate(-340.503 -303.189)" fill="#cc0018"/><path d="M430.346,360.844l-1.578.33a.354.354,0,0,1-.33-.567l.369-.489a2.133,2.133,0,0,1,1.251-.8l1.578-.333a.357.357,0,0,1,.33.567l-.372.489a2.154,2.154,0,0,1-1.248.807" transform="translate(-348.152 -291.763)" fill="#cc0018"/><path d="M438.843,346.292l-1.548.444a.357.357,0,0,1-.372-.546l.336-.51a2.133,2.133,0,0,1,1.2-.9l1.551-.441a.357.357,0,0,1,.372.543l-.336.513a2.13,2.13,0,0,1-1.2.9" transform="translate(-355.065 -279.854)" fill="#cc0018"/><path d="M446.372,331.207l-1.5.549a.354.354,0,0,1-.408-.516l.3-.534a2.122,2.122,0,0,1,1.131-.969l1.5-.549a.357.357,0,0,1,.408.516l-.3.534a2.1,2.1,0,0,1-1.131.969" transform="translate(-361.19 -267.526)" fill="#cc0018"/><path d="M452.892,315.673l-1.473.657a.357.357,0,0,1-.444-.489l.261-.552a2.118,2.118,0,0,1,1.059-1.05l1.473-.657a.357.357,0,0,1,.441.489l-.261.555a2.124,2.124,0,0,1-1.056,1.044" transform="translate(-366.504 -254.845)" fill="#cc0018"/><path d="M458.366,299.767l-1.425.756a.354.354,0,0,1-.474-.453l.219-.57a2.145,2.145,0,0,1,.984-1.119l1.425-.756a.354.354,0,0,1,.474.456l-.219.57a2.127,2.127,0,0,1-.984,1.119" transform="translate(-370.973 -241.858)" fill="#cc0018"/><path d="M462.774,283.587l-1.368.855a.357.357,0,0,1-.507-.423l.18-.585a2.131,2.131,0,0,1,.9-1.2l1.365-.852a.354.354,0,0,1,.5.42l-.18.582a2.12,2.12,0,0,1-.9,1.2" transform="translate(-374.583 -228.666)" fill="#cc0018"/><path d="M466.086,267.154l-1.3.948a.354.354,0,0,1-.534-.381l.138-.6a2.125,2.125,0,0,1,.816-1.245l1.3-.948a.357.357,0,0,1,.534.384l-.141.6a2.118,2.118,0,0,1-.816,1.242" transform="translate(-377.31 -215.272)" fill="#cc0018"/><path d="M468.3,250.607l-1.233,1.035a.357.357,0,0,1-.561-.348l.1-.6a2.124,2.124,0,0,1,.726-1.3l1.236-1.035a.354.354,0,0,1,.558.345l-.1.6a2.138,2.138,0,0,1-.729,1.3" transform="translate(-379.142 -201.79)" fill="#cc0018"/><path d="M469.381,233.981,468.22,235.1a.357.357,0,0,1-.582-.3l.054-.6a2.121,2.121,0,0,1,.636-1.347l1.158-1.119a.357.357,0,0,1,.582.3l-.054.6a2.1,2.1,0,0,1-.633,1.344" transform="translate(-380.071 -188.255)" fill="#cc0018"/><path d="M469.353,217.389l-1.08,1.2a.354.354,0,0,1-.6-.264v-.6a2.145,2.145,0,0,1,.54-1.389l1.077-1.2a.357.357,0,0,1,.6.267v.6a2.13,2.13,0,0,1-.54,1.386" transform="translate(-380.1 -174.756)" fill="#cc0018"/><path d="M468.04,200.914l-.993,1.266a.357.357,0,0,1-.621-.222l-.03-.6a2.137,2.137,0,0,1,.444-1.422l.993-1.269a.357.357,0,0,1,.618.222l.03.6a2.133,2.133,0,0,1-.444,1.422" transform="translate(-379.06 -161.359)" fill="#cc0018"/><path d="M465.535,184.623l-.9,1.335a.357.357,0,0,1-.636-.177l-.072-.6a2.121,2.121,0,0,1,.342-1.449l.9-1.332a.354.354,0,0,1,.633.177l.075.6a2.136,2.136,0,0,1-.342,1.449" transform="translate(-377.041 -148.121)" fill="#cc0018"/><path d="M461.881,168.6l-.8,1.392a.357.357,0,0,1-.645-.135l-.117-.6a2.131,2.131,0,0,1,.243-1.47l.8-1.392a.354.354,0,0,1,.645.135l.117.6a2.138,2.138,0,0,1-.24,1.47" transform="translate(-374.09 -135.105)" fill="#cc0018"/><path d="M457.107,152.906l-.708,1.452a.357.357,0,0,1-.651-.09l-.156-.6a2.123,2.123,0,0,1,.135-1.482l.708-1.449a.357.357,0,0,1,.651.09l.156.6a2.138,2.138,0,0,1-.138,1.482" transform="translate(-370.218 -122.375)" fill="#cc0018"/><path d="M451.221,137.64l-.6,1.5a.354.354,0,0,1-.657-.048l-.2-.579a2.1,2.1,0,0,1,.03-1.5l.6-1.5a.354.354,0,0,1,.657.045l.2.579a2.131,2.131,0,0,1-.03,1.5" transform="translate(-365.448 -109.992)" fill="#cc0018"/><path d="M444.277,122.851l-.5,1.533a.357.357,0,0,1-.657,0l-.237-.564a2.123,2.123,0,0,1-.072-1.5l.5-1.533a.357.357,0,0,1,.66,0l.24.561a2.124,2.124,0,0,1,.069,1.5" transform="translate(-359.812 -98.005)" fill="#cc0018"/><path d="M436.279,108.637l-.39,1.563a.354.354,0,0,1-.657.048l-.279-.549a2.136,2.136,0,0,1-.174-1.476l.39-1.563a.357.357,0,0,1,.657-.048l.276.546a2.126,2.126,0,0,1,.174,1.479" transform="translate(-353.317 -86.491)" fill="#cc0018"/><path d="M427.281,95.047,427,96.634a.357.357,0,0,1-.654.1l-.3-.525a2.121,2.121,0,0,1-.276-1.461l.279-1.587a.357.357,0,0,1,.651-.1l.3.525a2.145,2.145,0,0,1,.279,1.464" transform="translate(-346.005 -75.49)" fill="#cc0018"/><path d="M417.342,82.168l-.168,1.6a.354.354,0,0,1-.642.138l-.348-.5a2.124,2.124,0,0,1-.381-1.44l.168-1.6a.354.354,0,0,1,.642-.141l.351.5a2.1,2.1,0,0,1,.378,1.44" transform="translate(-337.932 -65.08)" fill="#cc0018"/><path d="M406.5,70.041l-.054,1.611a.357.357,0,0,1-.633.183l-.381-.477a2.1,2.1,0,0,1-.48-1.41l.057-1.611a.357.357,0,0,1,.633-.183l.384.474a2.1,2.1,0,0,1,.477,1.41" transform="translate(-329.118 -55.287)" fill="#cc0018"/><path d="M394.544,58.737l.054,1.611a.357.357,0,0,1-.618.228l-.417-.45a2.146,2.146,0,0,1-.579-1.374l-.057-1.611a.36.36,0,0,1,.621-.228l.414.45a2.141,2.141,0,0,1,.576,1.374" transform="translate(-319.355 -46.167)" fill="#cc0018"/><path d="M381.6,48.321l.168,1.6a.357.357,0,0,1-.6.27l-.447-.42a2.139,2.139,0,0,1-.669-1.329l-.168-1.6a.357.357,0,0,1,.6-.27l.447.42a2.121,2.121,0,0,1,.669,1.329" transform="translate(-308.746 -37.776)" fill="#cc0018"/><path d="M367.955,38.819l.279,1.587a.357.357,0,0,1-.582.3l-.474-.384a2.137,2.137,0,0,1-.759-1.281l-.279-1.587a.354.354,0,0,1,.579-.3l.477.387a2.141,2.141,0,0,1,.762,1.278" transform="translate(-297.575 -30.131)" fill="#cc0018"/><path d="M353.676,30.3l.39,1.563a.357.357,0,0,1-.558.351l-.5-.354a2.124,2.124,0,0,1-.849-1.221l-.393-1.563a.357.357,0,0,1,.561-.351l.5.351a2.139,2.139,0,0,1,.849,1.224" transform="translate(-285.897 -23.296)" fill="#cc0018"/><path d="M338.844,22.785l.5,1.533a.357.357,0,0,1-.534.39l-.522-.318a2.118,2.118,0,0,1-.93-1.161l-.5-1.533a.354.354,0,0,1,.531-.387l.522.318a2.117,2.117,0,0,1,.933,1.158" transform="translate(-273.768 -17.277)" fill="#cc0018"/><path d="M323.528,16.341l.6,1.5a.357.357,0,0,1-.5.426l-.54-.279a2.123,2.123,0,0,1-1.011-1.1l-.6-1.5a.357.357,0,0,1,.5-.426l.546.279a2.1,2.1,0,0,1,1.008,1.095" transform="translate(-261.254 -12.123)" fill="#cc0018"/><path d="M307.79,10.961l.708,1.449a.357.357,0,0,1-.471.459l-.564-.243a2.117,2.117,0,0,1-1.083-1.02l-.708-1.449a.357.357,0,0,1,.471-.459l.561.243a2.1,2.1,0,0,1,1.083,1.02" transform="translate(-248.408 -7.865)" fill="#cc0018"/><path d="M291.726,6.708l.807,1.4a.357.357,0,0,1-.441.489l-.579-.2a2.124,2.124,0,0,1-1.152-.942l-.807-1.395a.357.357,0,0,1,.438-.492l.576.2a2.121,2.121,0,0,1,1.155.942" transform="translate(-235.302 -4.506)" fill="#cc0018"/><path d="M275.413,3.568l.9,1.335a.357.357,0,0,1-.405.522l-.6-.159a2.142,2.142,0,0,1-1.218-.858l-.9-1.338a.357.357,0,0,1,.4-.522l.6.162a2.124,2.124,0,0,1,1.2.858" transform="translate(-222.01 -2.059)" fill="#cc0018"/><path d="M258.9,1.586l.993,1.269a.357.357,0,0,1-.366.546l-.6-.117a2.121,2.121,0,0,1-1.275-.774l-.99-1.269A.357.357,0,0,1,257.031.7l.6.12a2.1,2.1,0,0,1,1.272.771" transform="translate(-208.548 -0.56)" fill="#cc0018"/><path d="M242.3.76l1.077,1.2a.354.354,0,0,1-.33.57l-.6-.072a2.139,2.139,0,0,1-1.326-.684l-1.08-1.2A.357.357,0,0,1,240.359,0l.6.075a2.124,2.124,0,0,1,1.326.681" transform="translate(-195.029 -0.001)" fill="#cc0018"/><path d="M225.7,1.1l1.161,1.122a.357.357,0,0,1-.3.6l-.6-.036a2.118,2.118,0,0,1-1.368-.6l-1.161-1.119a.357.357,0,0,1,.3-.6l.6.036a2.127,2.127,0,0,1,1.368.6" transform="translate(-181.515 -0.385)" fill="#cc0018"/><path d="M209.129,2.544l1.233,1.038a.354.354,0,0,1-.246.6h-.6a2.1,2.1,0,0,1-1.4-.489l-1.236-1.035a.354.354,0,0,1,.243-.6h.6a2.136,2.136,0,0,1,1.407.489" transform="translate(-168.035 -1.668)" fill="#cc0018"/><path d="M192.732,4.968l1.3.945a.357.357,0,0,1-.2.627l-.6.051A2.124,2.124,0,0,1,191.8,6.2l-1.3-.948a.357.357,0,0,1,.2-.627l.6-.051a2.124,2.124,0,0,1,1.437.393" transform="translate(-154.707 -3.711)" fill="#cc0018"/><path d="M176.552,8.5l1.368.852a.357.357,0,0,1-.156.642l-.6.093a2.115,2.115,0,0,1-1.461-.3l-1.368-.852a.357.357,0,0,1,.156-.642l.6-.093a2.121,2.121,0,0,1,1.461.3" transform="translate(-141.566 -6.647)" fill="#cc0018"/><path d="M160.678,13.1l1.425.753a.357.357,0,0,1-.114.651l-.6.138a2.1,2.1,0,0,1-1.476-.189l-1.425-.756a.354.354,0,0,1,.114-.645l.6-.141a2.133,2.133,0,0,1,1.479.192" transform="translate(-128.677 -10.444)" fill="#cc0018"/><path d="M145.193,18.779l1.473.651a.36.36,0,0,1-.066.657l-.6.177a2.124,2.124,0,0,1-1.5-.084l-1.473-.654a.357.357,0,0,1,.066-.657l.6-.177a2.13,2.13,0,0,1,1.5.087" transform="translate(-116.117 -15.116)" fill="#cc0018"/><path d="M130.15,25.477l1.5.552a.357.357,0,0,1-.021.657l-.573.216a2.1,2.1,0,0,1-1.5.021l-1.5-.549a.357.357,0,0,1,.021-.66l.573-.216a2.13,2.13,0,0,1,1.5-.021" transform="translate(-103.922 -20.605)" fill="#cc0018"/><path d="M115.622,33.179l1.548.444a.357.357,0,0,1,.027.657l-.555.255a2.139,2.139,0,0,1-1.482.126l-1.554-.444a.357.357,0,0,1-.024-.657l.555-.255a2.118,2.118,0,0,1,1.485-.123" transform="translate(-92.144 -26.903)" fill="#cc0018"/><path d="M101.7,41.852l1.578.336a.357.357,0,0,1,.069.654l-.534.3a2.139,2.139,0,0,1-1.473.225l-1.575-.336a.357.357,0,0,1-.072-.651l.54-.3a2.13,2.13,0,0,1,1.47-.225" transform="translate(-80.877 -33.977)" fill="#cc0018"/><path d="M88.462,51.448l1.6.225a.357.357,0,0,1,.117.648l-.516.333a2.1,2.1,0,0,1-1.449.327l-1.6-.222a.357.357,0,0,1-.117-.648l.513-.333a2.139,2.139,0,0,1,1.455-.327" transform="translate(-70.168 -41.797)" fill="#cc0018"/><path d="M75.942,61.921l1.608.111a.357.357,0,0,1,.159.639l-.492.363a2.118,2.118,0,0,1-1.425.432l-1.608-.111a.357.357,0,0,1-.162-.639l.489-.369a2.118,2.118,0,0,1,1.425-.426" transform="translate(-60.048 -50.323)" fill="#cc0018"/><path d="M64.219,73.2h1.614a.357.357,0,0,1,.2.627l-.462.4a2.127,2.127,0,0,1-1.392.528H62.572a.357.357,0,0,1-.207-.627l.462-.4a2.13,2.13,0,0,1,1.392-.528" transform="translate(-50.59 -59.493)" fill="#cc0018"/><path d="M53.343,84.811l1.608-.111a.357.357,0,0,1,.249.6l-.438.432a2.124,2.124,0,0,1-1.35.621l-1.608.114a.357.357,0,0,1-.249-.6l.432-.432a2.124,2.124,0,0,1,1.353-.624" transform="translate(-41.817 -68.839)" fill="#cc0018"/><path d="M43.383,97.15l1.6-.222a.357.357,0,0,1,.3.6l-.4.462a2.118,2.118,0,0,1-1.305.714l-1.6.225a.36.36,0,0,1-.3-.6l.4-.459a2.127,2.127,0,0,1,1.3-.72" transform="translate(-33.801 -78.787)" fill="#cc0018"/><path d="M34.363,110.19l1.575-.333a.354.354,0,0,1,.33.567l-.369.489a2.127,2.127,0,0,1-1.254.8l-1.575.333a.354.354,0,0,1-.33-.567l.372-.486a2.115,2.115,0,0,1,1.251-.807" transform="translate(-26.551 -89.277)" fill="#cc0018"/><path d="M26.337,123.848l1.551-.447a.357.357,0,0,1,.372.546l-.336.513a2.124,2.124,0,0,1-1.2.9l-1.548.444a.357.357,0,0,1-.372-.546l.336-.513a2.13,2.13,0,0,1,1.2-.9" transform="translate(-20.118 -100.283)" fill="#cc0018"/><path d="M19.332,138.09l1.5-.549a.354.354,0,0,1,.423.525l-.3.534a2.1,2.1,0,0,1-1.128.969l-1.5.552a.357.357,0,0,1-.408-.519l.3-.534a2.133,2.133,0,0,1,1.131-.972" transform="translate(-14.511 -111.771)" fill="#cc0018"/><path d="M13.432,152.8l1.473-.654a.357.357,0,0,1,.441.489l-.261.552a2.127,2.127,0,0,1-1.059,1.047l-1.473.657a.357.357,0,0,1-.441-.489l.258-.555a2.142,2.142,0,0,1,1.059-1.05" transform="translate(-9.817 -123.631)" fill="#cc0018"/><path d="M8.618,167.935l1.425-.756a.357.357,0,0,1,.474.456l-.222.57a2.121,2.121,0,0,1-.984,1.116l-1.422.756a.354.354,0,0,1-.474-.453l.216-.573a2.16,2.16,0,0,1,.984-1.119" transform="translate(-5.999 -135.841)" fill="#cc0018"/><path d="M4.909,183.419l1.368-.855a.357.357,0,0,1,.507.42l-.18.6a2.148,2.148,0,0,1-.9,1.2l-1.368.852a.354.354,0,0,1-.5-.423l.177-.582a2.13,2.13,0,0,1,.9-1.2" transform="translate(-3.097 -148.34)" fill="#cc0018"/><path d="M2.352,199.167l1.3-.948a.357.357,0,0,1,.534.387l-.138.6a2.136,2.136,0,0,1-.816,1.245l-1.3.945a.354.354,0,0,1-.534-.384l.138-.6a2.142,2.142,0,0,1,.816-1.245" transform="translate(-1.128 -161.052)" fill="#cc0018"/><path d="M.942,215.119l1.236-1.035a.357.357,0,0,1,.561.348l-.1.6a2.115,2.115,0,0,1-.726,1.3L.678,217.366a.354.354,0,0,1-.558-.345l.1-.6a2.139,2.139,0,0,1,.726-1.3" transform="translate(-0.093 -173.935)" fill="#cc0018"/><path d="M.692,231.19l1.158-1.122a.357.357,0,0,1,.582.3l-.054.6a2.133,2.133,0,0,1-.636,1.347L.581,233.434a.354.354,0,0,1-.579-.3l.057-.6a2.1,2.1,0,0,1,.636-1.344" transform="translate(0.001 -186.916)" fill="#cc0018"/><path d="M1.593,247.3l1.08-1.2a.357.357,0,0,1,.6.267v.6a2.1,2.1,0,0,1-.54,1.386l-1.077,1.2a.357.357,0,0,1-.6-.267v-.6A2.1,2.1,0,0,1,1.6,247.3" transform="translate(-0.843 -199.935)" fill="#cc0018"/><path d="M3.518,263.352l.993-1.269a.357.357,0,0,1,.618.222l.033.6a2.136,2.136,0,0,1-.444,1.419l-.993,1.269a.357.357,0,0,1-.618-.225l-.03-.6a2.13,2.13,0,0,1,.444-1.422" transform="translate(-2.498 -212.91)" fill="#cc0018"/><path d="M6.509,279.3l.9-1.335a.354.354,0,0,1,.633.177l.075.6a2.133,2.133,0,0,1-.342,1.446l-.9,1.335a.354.354,0,0,1-.636-.162l-.072-.6a2.121,2.121,0,0,1,.342-1.449" transform="translate(-4.997 -225.797)" fill="#cc0018"/><path d="M10.578,295.043l.807-1.4a.357.357,0,0,1,.645.138l.117.6a2.121,2.121,0,0,1-.243,1.47l-.8,1.4a.357.357,0,0,1-.645-.135l-.114-.6a2.139,2.139,0,0,1,.24-1.47" transform="translate(-8.37 -238.532)" fill="#cc0018"/><path d="M15.719,310.509l.708-1.449a.357.357,0,0,1,.651.09l.156.6a2.118,2.118,0,0,1-.135,1.482l-.708,1.449a.357.357,0,0,1-.654-.09l-.156-.6a2.118,2.118,0,0,1,.138-1.482" transform="translate(-12.605 -251.046)" fill="#cc0018"/><path d="M21.927,325.634l.6-1.5a.357.357,0,0,1,.66.045l.2.579a2.124,2.124,0,0,1-.033,1.5l-.6,1.5a.354.354,0,0,1-.657-.045l-.2-.579a2.145,2.145,0,0,1,.033-1.5" transform="translate(-17.7 -263.282)" fill="#cc0018"/><path d="M29.133,340.317l.5-1.53a.354.354,0,0,1,.657,0l.237.564a2.13,2.13,0,0,1,.072,1.5l-.5,1.533a.357.357,0,0,1-.657,0l-.237-.564a2.127,2.127,0,0,1-.072-1.5" transform="translate(-23.595 -275.166)" fill="#cc0018"/><path d="M37.329,354.522l.39-1.563a.357.357,0,0,1,.657-.048l.279.543a2.151,2.151,0,0,1,.174,1.479l-.393,1.566a.357.357,0,0,1-.657.045L37.5,356a2.139,2.139,0,0,1-.177-1.479" transform="translate(-30.288 -286.668)" fill="#cc0018"/><path d="M46.466,368.159l.279-1.587a.357.357,0,0,1,.654-.1l.3.528a2.134,2.134,0,0,1,.276,1.461l-.279,1.587a.357.357,0,0,1-.654.1l-.3-.525a2.155,2.155,0,0,1-.279-1.464" transform="translate(-37.742 -297.716)" fill="#cc0018"/><path d="M56.507,381.163l.171-1.6a.357.357,0,0,1,.645-.138l.348.5a2.118,2.118,0,0,1,.378,1.44l-.168,1.6a.357.357,0,0,1-.642.138l-.351-.5a2.146,2.146,0,0,1-.381-1.44" transform="translate(-45.908 -308.257)" fill="#cc0018"/><path d="M67.408,393.486l.057-1.611a.354.354,0,0,1,.63-.183l.384.477a2.121,2.121,0,0,1,.477,1.41L68.9,395.19a.354.354,0,0,1-.63.183l-.384-.477a2.127,2.127,0,0,1-.48-1.407" transform="translate(-54.787 -318.231)" fill="#cc0018"/><path d="M78.863,405.031l-.063-1.6a.357.357,0,0,1,.618-.225l.417.447a2.142,2.142,0,0,1,.576,1.374l.054,1.608a.357.357,0,0,1-.618.228l-.414-.447a2.127,2.127,0,0,1-.576-1.371" transform="translate(-64.052 -327.601)" fill="#cc0018"/><path d="M90.841,415.776l-.168-1.6a.357.357,0,0,1,.6-.27l.447.42a2.124,2.124,0,0,1,.669,1.329l.168,1.6a.357.357,0,0,1-.6.27l-.45-.42a2.1,2.1,0,0,1-.669-1.329" transform="translate(-73.69 -336.321)" fill="#cc0018"/><path d="M103.545,425.655l-.279-1.587a.357.357,0,0,1,.582-.3l.474.384a2.13,2.13,0,0,1,.756,1.281l.282,1.587a.357.357,0,0,1-.579.3l-.477-.387a2.127,2.127,0,0,1-.759-1.281" transform="translate(-83.922 -344.343)" fill="#cc0018"/><path d="M116.907,434.636l-.39-1.563a.357.357,0,0,1,.558-.351l.5.354a2.118,2.118,0,0,1,.846,1.224l.393,1.563a.357.357,0,0,1-.558.348l-.5-.348a2.129,2.129,0,0,1-.846-1.224" transform="translate(-94.689 -351.644)" fill="#cc0018"/><path d="M130.869,442.656l-.5-1.533a.354.354,0,0,1,.531-.387l.525.315a2.139,2.139,0,0,1,.93,1.158l.5,1.536a.357.357,0,0,1-.534.39l-.522-.318a2.126,2.126,0,0,1-.93-1.161" transform="translate(-105.945 -358.167)" fill="#cc0018"/><path d="M145.352,449.682l-.6-1.5a.357.357,0,0,1,.5-.426l.543.279a2.1,2.1,0,0,1,1.011,1.1l.6,1.5a.354.354,0,0,1-.5.426l-.546-.279a2.115,2.115,0,0,1-1.011-1.095" transform="translate(-117.623 -363.891)" fill="#cc0018"/><path d="M160.3,455.672l-.705-1.449a.354.354,0,0,1,.471-.459l.561.243a2.136,2.136,0,0,1,1.086,1.02l.7,1.449a.357.357,0,0,1-.471.459l-.561-.24a2.121,2.121,0,0,1-1.083-1.02" transform="translate(-129.685 -368.774)" fill="#cc0018"/><path d="M175.628,460.616l-.807-1.4a.354.354,0,0,1,.438-.489l.576.2a2.121,2.121,0,0,1,1.152.942l.807,1.4a.357.357,0,0,1-.441.489l-.576-.2a2.115,2.115,0,0,1-1.152-.942" transform="translate(-142.049 -372.818)" fill="#cc0018"/><path d="M191.251,464.468l-.9-1.332a.357.357,0,0,1,.405-.522l.6.159a2.13,2.13,0,0,1,1.218.861l.9,1.335a.357.357,0,0,1-.4.519l-.6-.162a2.118,2.118,0,0,1-1.215-.861" transform="translate(-154.66 -375.977)" fill="#cc0018"/><path d="M207.128,467.24l-.99-1.266a.354.354,0,0,1,.363-.549l.6.117a2.13,2.13,0,0,1,1.275.771l.993,1.269a.357.357,0,0,1-.366.549l-.6-.12a2.1,2.1,0,0,1-1.275-.774" transform="translate(-167.482 -378.266)" fill="#cc0018"/><path d="M223.141,468.892l-1.077-1.2a.357.357,0,0,1,.327-.57l.6.075a2.121,2.121,0,0,1,1.326.684l1.08,1.2a.357.357,0,0,1-.33.57l-.6-.078a2.134,2.134,0,0,1-1.323-.681" transform="translate(-180.415 -379.654)" fill="#cc0018"/><path d="M239.253,469.424l-1.158-1.122a.354.354,0,0,1,.3-.6l.6.036a2.123,2.123,0,0,1,1.368.585l1.158,1.122a.354.354,0,0,1-.3.6l-.6-.033a2.134,2.134,0,0,1-1.368-.6" transform="translate(-193.434 -380.132)" fill="#cc0018"/><path d="M255.336,468.765l-1.233-1.038a.354.354,0,0,1,.243-.6h.6a2.1,2.1,0,0,1,1.407.492l1.236,1.035a.357.357,0,0,1-.246.6h-.6a2.121,2.121,0,0,1-1.4-.489" transform="translate(-206.427 -379.641)" fill="#cc0018"/><path d="M271.363,466.849l-1.308-.948a.357.357,0,0,1,.2-.627l.6-.051a2.1,2.1,0,0,1,1.434.393l1.308.945a.354.354,0,0,1-.2.624l-.6.054a2.136,2.136,0,0,1-1.434-.393" transform="translate(-219.382 -378.103)" fill="#cc0018"/><path d="M287.216,463.765l-1.365-.858a.354.354,0,0,1,.156-.636l.6-.093a2.124,2.124,0,0,1,1.461.3l1.368.852a.357.357,0,0,1-.156.639l-.6.093a2.138,2.138,0,0,1-1.461-.3" transform="translate(-232.205 -375.613)" fill="#cc0018"/><path d="M302.846,459.543l-1.425-.753a.357.357,0,0,1,.111-.648l.6-.138a2.145,2.145,0,0,1,1.482.186l1.422.756a.354.354,0,0,1-.111.648l-.6.135a2.1,2.1,0,0,1-1.476-.186" transform="translate(-244.844 -372.195)" fill="#cc0018"/><path d="M318.151,454.218l-1.473-.657a.357.357,0,0,1,.066-.654l.6-.177a2.14,2.14,0,0,1,1.5.084l1.473.654a.357.357,0,0,1-.066.657l-.6.177a2.135,2.135,0,0,1-1.5-.084" transform="translate(-257.224 -367.878)" fill="#cc0018"/><path d="M333.066,447.8l-1.5-.555a.357.357,0,0,1,.018-.657l.573-.216a2.123,2.123,0,0,1,1.5-.018l1.5.549a.357.357,0,0,1-.018.66l-.573.216a2.13,2.13,0,0,1-1.5.021" transform="translate(-269.292 -362.672)" fill="#cc0018"/><path d="M347.542,440.323l-1.551-.444a.357.357,0,0,1-.027-.66l.558-.255a2.137,2.137,0,0,1,1.485-.123l1.551.444a.357.357,0,0,1,.024.657l-.558.255a2.1,2.1,0,0,1-1.482.123" transform="translate(-281.014 -356.602)" fill="#cc0018"/><path d="M361.466,431.842l-1.575-.336a.357.357,0,0,1-.069-.657l.534-.3a2.126,2.126,0,0,1,1.473-.225l1.575.333a.357.357,0,0,1,.072.657l-.54.3a2.133,2.133,0,0,1-1.47.225" transform="translate(-292.292 -349.705)" fill="#cc0018"/><path d="M374.8,422.357l-1.6-.225a.354.354,0,0,1-.117-.648l.513-.333a2.124,2.124,0,0,1,1.452-.33l1.6.225a.357.357,0,0,1,.117.645l-.516.333a2.125,2.125,0,0,1-1.449.33" transform="translate(-303.093 -342.008)" fill="#cc0018"/><path d="M387.474,411.964l-1.608-.114a.357.357,0,0,1-.159-.639l.489-.366a2.115,2.115,0,0,1,1.425-.426l1.608.111a.357.357,0,0,1,.162.639l-.492.369a2.13,2.13,0,0,1-1.425.429" transform="translate(-313.365 -333.562)" fill="#cc0018"/><path d="M220.019,31.246l2.355-1.692-.9-2.778,2.337,1.716,2.361-1.725-.9,2.754,2.37,1.713h-2.9l-.9,2.781-.882-2.763Z" transform="translate(-178.82 -21.754)" fill="#cc0018" fill-rule="evenodd"/><path d="M147.359,44.726l1.527-2.466-1.9-2.217,2.817.69,1.521-2.5.213,2.892,2.844.675-2.685,1.1.237,2.913L150.056,43.6Z" transform="translate(-119.459 -31.079)" fill="#cc0018" fill-rule="evenodd"/><path d="M82.584,87.987l.468-2.862L80.445,83.8l2.865-.441.45-2.889,1.3,2.589,2.886-.465-2.061,2.04,1.335,2.6-2.577-1.329Z" transform="translate(-65.379 -65.406)" fill="#cc0018" fill-rule="evenodd"/><path d="M41.826,154.434l-.663-2.823-2.916-.222,2.478-1.5-.69-2.841,2.2,1.893,2.487-1.533L43.6,150.081l2.229,1.893-2.889-.24Z" transform="translate(-31.086 -119.511)" fill="#cc0018" fill-rule="evenodd"/><path d="M31.247,227.635l-1.695-2.355-2.778.9,1.716-2.337-1.725-2.361,2.754.9,1.713-2.37v2.9l2.781.9-2.763.882Z" transform="translate(-21.755 -178.834)" fill="#cc0018" fill-rule="evenodd"/><path d="M44.726,301.178l-2.466-1.527-2.217,1.905.69-2.817-2.5-1.521,2.892-.213.675-2.844,1.1,2.685,2.913-.237L43.6,298.481Z" transform="translate(-31.079 -239.078)" fill="#cc0018" fill-rule="evenodd"/><path d="M87.987,365.472,85.125,365l-1.32,2.607-.441-2.865-2.889-.45,2.589-1.305-.465-2.886,2.04,2.061,2.6-1.335-1.329,2.577Z" transform="translate(-65.406 -292.677)" fill="#cc0018" fill-rule="evenodd"/><path d="M154.434,405.91l-2.823.663-.222,2.916-1.5-2.478-2.841.69,1.893-2.2-1.533-2.487,2.673,1.122,1.893-2.229-.24,2.889Z" transform="translate(-119.511 -326.65)" fill="#cc0018" fill-rule="evenodd"/><path d="M227.635,418l-2.355,1.692.9,2.778-2.337-1.716-2.361,1.725.9-2.754-2.37-1.713h2.9l.9-2.781.882,2.763Z" transform="translate(-178.834 -337.491)" fill="#cc0018" fill-rule="evenodd"/><path d="M301.178,403.02l-1.527,2.466,1.905,2.217-2.817-.69-1.521,2.5-.213-2.892-2.844-.675,2.685-1.1-.237-2.913,1.872,2.214Z" transform="translate(-239.078 -326.67)" fill="#cc0018" fill-rule="evenodd"/><path d="M365.472,360.051,365,362.913l2.607,1.32-2.865.441-.45,2.889-1.305-2.589-2.886.465,2.061-2.04-1.335-2.6,2.577,1.329Z" transform="translate(-292.677 -292.629)" fill="#cc0018" fill-rule="evenodd"/><path d="M405.909,294.131l.663,2.823,2.916.222-2.478,1.5.69,2.841-2.2-1.893-2.487,1.533,1.122-2.673-2.229-1.893,2.889.24Z" transform="translate(-326.649 -239.054)" fill="#cc0018" fill-rule="evenodd"/><path d="M418,220.019l1.7,2.355,2.778-.9-1.716,2.337,1.725,2.361-2.754-.9-1.713,2.37v-2.9l-2.781-.9,2.763-.882Z" transform="translate(-337.489 -178.82)" fill="#cc0018" fill-rule="evenodd"/><path d="M403.02,147.359l2.466,1.527,2.217-1.9-.69,2.817,2.5,1.521-2.892.213-.675,2.844-1.1-2.685-2.913.237,2.214-1.872Z" transform="translate(-326.67 -119.459)" fill="#cc0018" fill-rule="evenodd"/><path d="M360.051,82.584l2.862.468,1.32-2.607.441,2.865,2.889.45-2.589,1.3.465,2.886L363.4,85.89l-2.6,1.335,1.329-2.577Z" transform="translate(-292.629 -65.382)" fill="#cc0018" fill-rule="evenodd"/><path d="M294.131,41.826l2.823-.663.222-2.916,1.5,2.478,2.841-.69-1.893,2.2,1.533,2.487L298.484,43.6l-1.893,2.229.24-2.889Z" transform="translate(-239.054 -31.086)" fill="#cc0018" fill-rule="evenodd"/><path d="M106.364,137.212a30.864,30.864,0,1,1,30.864-30.864,30.864,30.864,0,0,1-30.864,30.864m0-61.038a30.174,30.174,0,1,0,30.174,30.174,30.174,30.174,0,0,0-30.174-30.174" transform="translate(-61.361 -61.351)" fill="#cc0018"/><path d="M187.988,366.947l.9.3-.225.681-2.565-.849.225-.681.9.3.96-2.907.759.252Z" transform="translate(-151.244 -295.67)" fill="#cc0018"/><path d="M168.907,360.413l.96-1.953c.3-.585.225-.984-.141-1.161s-.717,0-1.014.6l-.957,1.953-.714-.351.936-1.9c.513-1.047,1.251-1.3,2.076-.9s1.032,1.095.5,2.178l-.93,1.893Zm-1.038.159a.354.354,0,1,1-.15-.5.363.363,0,0,1,.15.5m.975.48a.369.369,0,0,1-.495.189.384.384,0,1,1,.495-.189" transform="translate(-135.763 -289.754)" fill="#cc0018"/><path d="M153.57,348.679a6.451,6.451,0,0,1-.918-.531,1.694,1.694,0,0,1-.774-.885,1.053,1.053,0,0,1,1.2-1.254.951.951,0,0,1,0-.849,10.882,10.882,0,0,0,.36-1.041l.675.459a4.962,4.962,0,0,1-.3.864c-.186.441-.135.633.129.822l.2.135.837-1.23.651.444Zm.264-1.8-.258-.177a.549.549,0,0,0-.828.1.507.507,0,0,0,.186.765,1.808,1.808,0,0,0,.3.18Z" transform="translate(-123.414 -279.667)" fill="#cc0018"/><path d="M135.48,336.55l-.6-.525L136,334.783c-.156.057-.3.1-.456.147l-1.434.4-.726-.651,1.941-.42.534-2.433.69.621-.45,1.8.492-.093.822-.918.6.528Z" transform="translate(-108.408 -269.689)" fill="#cc0018"/><path d="M124.671,329.9a.369.369,0,0,1-.531,0,.388.388,0,0,1,.57-.519.375.375,0,0,1-.039.528m-.063-.963,2.8-2.535.537.6-2.8,2.535Z" transform="translate(-100.824 -265.284)" fill="#cc0018"/><path d="M118.164,316.82l-1.245.918-1.137,2.22-.54-.732.516-.828c.156-.252.276-.429.423-.648-.237.078-.462.138-.741.213l-.942.255-.531-.72,2.46-.375,1.266-.933Z" transform="translate(-92.628 -256.988)" fill="#cc0018"/><path d="M107.531,299.234l.63,1.131.783-.438-.705-1.263.6-.342,1.092,1.962-3.3,1.842-1.056-1.9.6-.342.669,1.2.684-.384-.63-1.131Z" transform="translate(-85.82 -242.459)" fill="#cc0018"/><path d="M99.316,276.951a2.139,2.139,0,0,1,.453.8,1.734,1.734,0,0,1-1.173,2.364,1.854,1.854,0,0,1-2.529-1.143,1.97,1.97,0,0,1-.129-.873l.693-.072a1.605,1.605,0,0,0,.09.678,1.248,1.248,0,0,0,2.343-.831,1.853,1.853,0,0,0-.336-.582Z" transform="translate(-77.962 -225.09)" fill="#cc0018"/><path d="M91.3,262.512l2.136-.426c.636-.126.918-.417.837-.816s-.435-.573-1.089-.444l-2.133.426-.156-.777,2.079-.414c1.143-.228,1.8.2,1.974,1.1s-.24,1.485-1.422,1.719l-2.067.411Z" transform="translate(-73.874 -211.317)" fill="#cc0018"/><path d="M91.707,235.117c-.453.024-1.005.051-1.554.06v.015c.486.1,1.026.237,1.47.363l1.485.4v.621l-1.458.4q-.728.2-1.47.345c.51,0,1.1.015,1.566.033l1.437.036v.738l-3.783-.153-.021-1.059,1.254-.369c.435-.117.9-.237,1.347-.324v-.015q-.684-.141-1.365-.3l-1.263-.354-.021-1.038,3.777-.264.015.777Z" transform="translate(-72.633 -190.393)" fill="#cc0018"/><path d="M89.9,214.288l1.437.2.174-1.3-1.44-.2.1-.786,3.744.51-.105.783-1.566-.213-.174,1.3,1.566.213-.105.789-3.744-.51Z" transform="translate(-72.981 -172.48)" fill="#cc0018"/><path d="M93.65,192.253l2.1.615c.624.183,1.005.057,1.122-.33s-.117-.711-.756-.9l-2.1-.615.225-.759,2.034.6c1.119.33,1.5,1.014,1.236,1.893s-.9,1.2-2.064.858l-2.022-.6Z" transform="translate(-75.935 -154.636)" fill="#cc0018"/><path d="M100.659,174.891a6.526,6.526,0,0,1,.369-1,1.7,1.7,0,0,1,.744-.9,1.056,1.056,0,0,1,1.443.99h.015a.948.948,0,0,1,.837-.132c.432.078.927.183,1.089.183l-.339.741a4.934,4.934,0,0,1-.9-.144c-.468-.111-.648-.027-.786.264l-.1.219,1.353.618-.327.717Zm1.8-.039.129-.285a.549.549,0,0,0-.234-.8.507.507,0,0,0-.723.3,2.019,2.019,0,0,0-.126.339Z" transform="translate(-81.81 -140.526)" fill="#cc0018"/><path d="M105.594,161.122a.372.372,0,0,1-.15-.513.363.363,0,0,1,.51-.105.358.358,0,1,1-.36.618m.9-.348,3.255,1.917-.4.687-3.255-1.917Z" transform="translate(-85.659 -130.402)" fill="#cc0018"/><path d="M117.374,148.534l-1.251-.915-2.46-.423.537-.732.948.246c.3.075.5.135.747.21-.144-.2-.27-.4-.426-.642l-.525-.825.528-.72,1.095,2.238,1.272.93Z" transform="translate(-92.384 -117.613)" fill="#cc0018"/><path d="M129.99,133.816l-.9.939.651.615.993-1.05.507.483-1.542,1.629-2.742-2.6,1.5-1.575.507.48-.942,1,.57.54.9-.939Z" transform="translate(-103.197 -107.494)" fill="#cc0018"/><path d="M139.8,121.153l-.726.6-.456-.552,2.079-1.725.456.552-.738.6,1.95,2.358-.6.51Z" transform="translate(-112.659 -97.105)" fill="#cc0018"/><path d="M151.918,111.4a.372.372,0,0,1,.084-.525.363.363,0,0,1,.507.123.369.369,0,0,1-.075.513.375.375,0,0,1-.516-.111m.963.072L155,114.6l-.663.447-2.121-3.126Z" transform="translate(-123.415 -90.067)" fill="#cc0018"/><path d="M171.021,106.489a1.921,1.921,0,0,0,.9-.18c.327-.162.429-.393.321-.6s-.3-.258-.765-.216a1.224,1.224,0,0,1-1.359-.573,1.182,1.182,0,0,1,.69-1.611,2.022,2.022,0,0,1,.9-.228l.147.7a1.587,1.587,0,0,0-.741.165c-.3.153-.384.378-.3.555s.33.222.822.189a1.176,1.176,0,0,1,1.317.6c.282.567.111,1.251-.753,1.68a2.171,2.171,0,0,1-.993.237Z" transform="translate(-138.159 -83.767)" fill="#cc0018"/><path d="M189.872,99.647l.075,1-.78.264-.2-3.921.99-.336,2.25,3.225-.81.276-.57-.831Zm.639-.9-.465-.687c-.132-.192-.279-.438-.4-.633.024.228.066.516.081.741l.06.825Z" transform="translate(-153.581 -78.554)" fill="#cc0018"/><path d="M206.216,94.784l-.672-3.717.9-.165.966,1.23a11.544,11.544,0,0,1,.8,1.17,15.264,15.264,0,0,1-.348-1.536l-.2-1.086.717-.132.675,3.717-.819.15-1-1.3a14.6,14.6,0,0,1-.837-1.2c.108.486.213,1.008.324,1.614l.2,1.119Z" transform="translate(-167.057 -73.589)" fill="#cc0018"/><path d="M228.325,92.337l-.231.975-.825.018,1.005-3.8,1.044-.021,1.161,3.759-.855.018-.3-.966Zm.882-.657-.234-.8c-.066-.222-.135-.5-.192-.726-.048.225-.1.513-.147.732l-.2.807Z" transform="translate(-184.711 -72.747)" fill="#cc0018"/><path d="M246.874,93.249l.144-1.542-.9-2.322.9.084.273.939c.084.282.138.489.2.744.1-.228.2-.435.33-.7l.435-.873.9.081-1.356,2.1-.144,1.569Z" transform="translate(-200.026 -72.648)" fill="#cc0018"/><path d="M264.938,88.127l-.723,3.711-.783-.153.723-3.711Zm-.627-.735a.372.372,0,0,1,.432-.3.363.363,0,0,1,.27.447.369.369,0,0,1-.414.3.375.375,0,0,1-.3-.444" transform="translate(-214.103 -70.769)" fill="#cc0018"/><path d="M281.758,99.266l.21-3.936.819.3-.135,1.647c-.036.462-.081.9-.159,1.377.237-.4.489-.783.747-1.149l.963-1.371.8.285-2.382,3.159Z" transform="translate(-228.997 -77.48)" fill="#cc0018"/><path d="M297.453,106.375l-1.152-.6-.408.8,1.284.657-.318.624-1.995-1.023,1.725-3.363,1.932.99-.321.624-1.221-.627-.357.7,1.152.6Z" transform="translate(-239.649 -84.106)" fill="#cc0018"/><path d="M318.116,115.9l-.759-.561.426-.576,2.175,1.611-.426.576-.774-.57-1.824,2.46-.642-.477Z" transform="translate(-257.075 -93.274)" fill="#cc0018"/><path d="M328.67,129.916l-.939-.9-.615.651,1.05.993-.48.51-1.629-1.542,2.6-2.748,1.578,1.5-.483.51-1-.942-.54.57.939.9Z" transform="translate(-264.998 -103.132)" fill="#cc0018"/><path d="M340.362,139.891l.5.6-1.293,1.053c.159-.03.318-.051.471-.075l1.479-.174.615.756-1.983.114-.9,2.319-.6-.72.723-1.7-.5.018-.954.78-.5-.6Z" transform="translate(-274.236 -113.695)" fill="#cc0018"/><path d="M348.517,158.2l3.237-1.938.477.795-.813,1.335a11.124,11.124,0,0,1-.813,1.155,14.764,14.764,0,0,1,1.314-.867l.945-.567.375.624L350,160.679l-.429-.717.864-1.392a14.489,14.489,0,0,1,.828-1.2c-.417.273-.867.555-1.4.873l-.975.585Z" transform="translate(-283.258 -127.004)" fill="#cc0018"/><path d="M363.091,181.628a1.749,1.749,0,0,1-2.493-.855,1.716,1.716,0,0,1,1.161-2.256,1.779,1.779,0,0,1,2.475.846,1.713,1.713,0,0,1-1.146,2.265m-1-2.337c-.687.279-1.047.774-.849,1.266s.825.579,1.5.3c.63-.255,1.056-.753.852-1.263s-.828-.582-1.5-.3" transform="translate(-292.969 -144.941)" fill="#cc0018"/><path d="M369.456,198.412l.2.774-2.97.744.339,1.356-.7.174-.537-2.13Z" transform="translate(-297.294 -161.26)" fill="#cc0018"/><path d="M371.934,218.734a1.752,1.752,0,0,1-2.175-1.5,1.713,1.713,0,0,1,1.725-1.857,1.782,1.782,0,0,1,2.16,1.479,1.71,1.71,0,0,1-1.713,1.869m-.336-2.514c-.735.084-1.218.462-1.158.99s.642.777,1.371.7c.675-.075,1.221-.441,1.158-.984s-.642-.783-1.374-.7" transform="translate(-300.513 -175.045)" fill="#cc0018"/><path d="M374.539,236.957v.792l-2.4-.021c-1.077,0-1.449-.492-1.443-1.266a1.938,1.938,0,0,1,.093-.579l.69.1a1.232,1.232,0,0,0-.069.408c0,.333.159.543.747.549Z" transform="translate(-301.285 -191.717)" fill="#cc0018"/><path d="M374.028,251.429l-3.762-.348.072-.795,3.762.345Zm.666-.7a.372.372,0,0,1,.351.4.363.363,0,0,1-.417.3.369.369,0,0,1-.348-.384.375.375,0,0,1,.414-.33" transform="translate(-300.933 -203.423)" fill="#cc0018"/><path d="M370.988,265.587a5.921,5.921,0,0,1-.165,1.017,1.84,1.84,0,0,1-.45.96.831.831,0,0,1-.819.237.849.849,0,0,1-.648-.753.933.933,0,0,1-1.068.462,1.041,1.041,0,0,1-.7-.543,2.1,2.1,0,0,1,0-1.425,5.7,5.7,0,0,1,.255-.822Zm-3.222.033a2.266,2.266,0,0,0-.084.3c-.084.348-.018.693.369.786s.6-.183.684-.57l.063-.264Zm1.629.393-.06.255c-.1.405.03.669.3.735s.474-.1.558-.444a2.057,2.057,0,0,0,.057-.336Z" transform="translate(-298.283 -215.145)" fill="#cc0018"/><path d="M360.566,281.444l-.81-.6.3-.768,3.12,2.4-.381.972-3.9-.369.3-.8,1,.1Zm.267,1.065.825.09c.231.024.516.069.741.1-.189-.132-.435-.285-.618-.417l-.669-.489Z" transform="translate(-291.68 -227.642)" fill="#cc0018"/><path d="M354.659,300.483l-.387.684-1.458-.822c.09.141.165.279.243.411l.7,1.311-.48.849-.831-1.8h-2.493l.456-.807,1.845.054-.2-.459-1.077-.6.387-.687Z" transform="translate(-284.42 -242.706)" fill="#cc0018"/><path d="M340.494,315.006l-.6-.792.5-.651,2.325,3.168-.639.825-3.651-1.455.525-.678.933.381Zm-.042,1.1.768.318c.216.087.474.21.684.3-.147-.18-.339-.4-.477-.576l-.5-.657Z" transform="translate(-275.049 -254.844)" fill="#cc0018"/><path d="M327.352,329.213l2.622,2.724-.669.642-1.5-.492a11.464,11.464,0,0,1-1.311-.537,14.822,14.822,0,0,1,1.14,1.089l.768.8-.528.507-2.622-2.724.6-.579,1.554.531a14.3,14.3,0,0,1,1.365.537c-.36-.345-.738-.723-1.167-1.167l-.789-.822Z" transform="translate(-264.349 -267.566)" fill="#cc0018"/><path d="M316.194,345.82l-.645.471-1.8-2.469-1.131.825-.423-.579,1.776-1.3Z" transform="translate(-253.728 -278.59)" fill="#cc0018"/><path d="M0,0H.8V3.777H0Z" transform="matrix(0.857, -0.515, 0.515, 0.857, 57.253, 66.197)" fill="#cc0018"/><path d="M288.083,359.284a3.713,3.713,0,0,1,.975-.684,1.872,1.872,0,0,1,1.5-.135,1.9,1.9,0,0,1,1.023,1.041,1.875,1.875,0,0,1-1,2.631,2.266,2.266,0,0,1-.963.24l-.135-.69a1.83,1.83,0,0,0,.813-.195,1.233,1.233,0,0,0-.978-2.259.971.971,0,0,0-.33.213l.33.717.492-.228.279.6-1.2.549Zm3.36,3.45a.279.279,0,0,0-.387-.105.3.3,0,0,0-.192.372l-.369.171a.663.663,0,0,1,.369-.948.648.648,0,0,1,.957.336Z" transform="translate(-234.14 -291.256)" fill="#cc0018"/><path d="M0,0H.8V3.777H0Z" transform="translate(52.325 68.365) rotate(-18.39)" fill="#cc0018"/><path d="M235.629,376.243a1.083,1.083,0,1,0,1.083,1.083,1.083,1.083,0,0,0-1.083-1.083" transform="translate(-190.626 -305.791)" fill="#cc0018"/><path d="M140.837,163.738a22.923,22.923,0,1,1,22.923-22.923,22.923,22.923,0,0,1-22.923,22.923m0-45.174a22.254,22.254,0,1,0,22.251,22.253,22.255,22.255,0,0,0-22.251-22.253" transform="translate(-95.834 -95.818)" fill="#cc0018"/><path d="M211.458,223.147a3.879,3.879,0,0,1-3.882-3.882,3.823,3.823,0,0,1,.12-.966,3.9,3.9,0,0,1,1.638-2.277,3.658,3.658,0,0,1,.516-.3,3.882,3.882,0,0,1,4.5.939,4.854,4.854,0,0,0-5.547-2.04,4.089,4.089,0,0,0-.579.225,4.851,4.851,0,0,0,2.022,9.261,2.3,2.3,0,0,0,.246,0,4.74,4.74,0,0,0,2.1-.6,4.833,4.833,0,0,0,1.749-1.653,3.866,3.866,0,0,1-2.145,1.218,3.694,3.694,0,0,1-.744.072" transform="translate(-166.932 -174.265)" fill="#cc0018"/><path d="M254.535,229.421l-.6-.81-.447-.6v1.758l-1.674.546,1.674.546v1.764l1.038-1.428,1.674.546-.762-1.053-.273-.375,1.035-1.422Z" transform="translate(-204.669 -185.303)" fill="#cc0018"/><path d="M179.78,163.1v-3.5l-3.951-.348a14.166,14.166,0,0,0-.852-3.249l3.261-2.1-1.653-2.925-3.648,1.476a14.333,14.333,0,0,0-2.349-2.37l1.56-3.51-2.787-1.62-2.373,3.036a14.155,14.155,0,0,0-3.078-.84l-.36-3.825-1.323-.066h-.516a18.2,18.2,0,0,0-18.174,18.171v.672a18.075,18.075,0,0,0,.366,2.937.694.694,0,1,0,.648-.153,17.423,17.423,0,0,1-.345-2.784h1.437a16.047,16.047,0,0,0,7.23,12.72.607.607,0,0,0-.018.081.69.69,0,1,0,.69-.69.681.681,0,0,0-.285.066A15.375,15.375,0,0,1,146.3,161.7v-.264h-2.1a17.4,17.4,0,0,1,3.465-10.44l1.56,1.386.432-.513a15.471,15.471,0,0,1,6-4.557.672.672,0,0,0,.342.105.69.69,0,1,0-.69-.69,16.146,16.146,0,0,0-6.159,4.7l-1.074-.957a17.478,17.478,0,0,1,13.626-6.531v1.434a16.038,16.038,0,0,0-2.655.237.678.678,0,0,0-.531-.267.69.69,0,1,0,.642.927,15.346,15.346,0,0,1,2.544-.228v1.452a13.863,13.863,0,0,0-8.835,3.183.69.69,0,1,0,.438.639.65.65,0,0,0-.024-.114,13.2,13.2,0,0,1,8.421-3.036v1.431a11.853,11.853,0,0,0-8.793,19.7l-.231-.27-1.041,1.053a13.313,13.313,0,0,1-2.079-3.315.675.675,0,0,0,.159-.423.69.69,0,0,0-1.38,0,.681.681,0,0,0,.6.672,14,14,0,0,0,2.226,3.543l.216.243.159.156.087.087,1.5-1.5a11.7,11.7,0,0,0,8.574,3.747v1.431a13.177,13.177,0,0,1-7.468-2.32v-.035a.69.69,0,1,0-.69.69.668.668,0,0,0,.333-.1,13.95,13.95,0,0,0,2.772,1.5l-.8,1.959.084.042.168.06.375.135a16.007,16.007,0,0,0,2.937.684.681.681,0,0,0,.648.483.69.69,0,0,0,0-1.38.681.681,0,0,0-.516.243,15.354,15.354,0,0,1-2.817-.648l.546-1.347-.363-.129a13.845,13.845,0,0,0,4.779.849v3.558a17.4,17.4,0,0,1-5.1-.771.681.681,0,0,0-.651-.495.69.69,0,1,0,0,1.38.681.681,0,0,0,.507-.228,18.071,18.071,0,0,0,5.238.786h.147l1.677-.078.4-4.2a14.17,14.17,0,0,0,2.982-.81l2.439,3.381,2.973-1.761-1.74-3.744a14.363,14.363,0,0,0,2.277-2.277l3.738,1.653,1.593-2.808-3.162-2.649a14.181,14.181,0,0,0,.765-2.9Zm-18.072,9.483a11.172,11.172,0,1,1,11.1-11.172,11.172,11.172,0,0,1-11.1,11.172" transform="translate(-116.657 -116.418)" fill="#cc0018"/><path d="M166.207,204.388a.687.687,0,0,0,.228-1.335,12.99,12.99,0,0,1,2.3-9.45.633.633,0,0,0,.069,0,.69.69,0,1,0-.69-.69.681.681,0,0,0,.069.3,13.671,13.671,0,0,0-2.4,9.951.681.681,0,0,0-.258.525.69.69,0,0,0,.69.69" transform="translate(-134.524 -156.244)" fill="#cc0018"/><path d="M157.686,282.318a.682.682,0,0,0-.3.072,17.6,17.6,0,0,1-6.9-7.662.674.674,0,0,0,.153-.414.69.69,0,1,0-.78.675,18.28,18.28,0,0,0,7.131,7.953.642.642,0,0,0,0,.066.69.69,0,1,0,.69-.69" transform="translate(-121.317 -222.387)" fill="#cc0018"/><path d="M156.5,196.1a.69.69,0,1,0-1.38,0,.675.675,0,0,0,.138.393,15.919,15.919,0,0,0-1.605,5.034.681.681,0,0,0-.489.651.69.69,0,1,0,1.38,0,.681.681,0,0,0-.24-.513,15.258,15.258,0,0,1,1.554-4.881.687.687,0,0,0,.642-.681" transform="translate(-124.478 -158.815)" fill="#cc0018"/><path d="M198.717,189.123a9.585,9.585,0,1,0,9.6,9.585,9.585,9.585,0,0,0-9.6-9.585m0,18.492a8.907,8.907,0,1,1,8.907-8.907,8.907,8.907,0,0,1-8.907,8.907" transform="translate(-153.714 -153.708)" fill="#cc0018"/></g></svg>