<?xml version="1.0" encoding="utf-8"?><svg xmlns="http://www.w3.org/2000/svg" xmlns:xlink="http://www.w3.org/1999/xlink"><defs><svg viewBox="0 0 32 32" id="i-arrow-left" xmlns="http://www.w3.org/2000/svg"><path d="M4.686 27.314A15.9 15.9 0 0016 32a15.9 15.9 0 0011.314-4.686A15.9 15.9 0 0032 16a15.9 15.9 0 00-4.686-11.314A15.9 15.9 0 0016 0 15.9 15.9 0 004.686 4.686 15.9 15.9 0 000 16a15.9 15.9 0 004.686 11.314zm21.92-.707A14.9 14.9 0 0116 31a14.9 14.9 0 01-10.607-4.394A14.9 14.9 0 011 16 14.9 14.9 0 015.393 5.393 14.9 14.9 0 0116 1a14.9 14.9 0 0110.606 4.393A14.9 14.9 0 0131 16a14.9 14.9 0 01-4.394 10.606zM17.331 20l.669-.744-3.587-3.223L18 12.8l-.669-.743-4.413 3.977z" data-name="Icon/Arrow_Black Copy" fill="#fff" opacity=".996"/></svg><svg viewBox="0 0 32 32" id="i-arrow-right" xmlns="http://www.w3.org/2000/svg"><path d="M27.314 27.314A16 16 0 014.686 4.686a16 16 0 0122.628 22.628zm-21.92-.707A15 15 0 0026.607 5.393 15 15 0 105.394 26.606zM14.669 20L14 19.256l3.587-3.223L14 12.8l.669-.743 4.413 3.977z" data-name="Icon/Arrow_Black" fill="#fff" opacity=".996"/></svg><svg viewBox="0 0 20 20" id="i-instagram" xmlns="http://www.w3.org/2000/svg"><defs><clipPath id="ca"/></defs><g data-name="Mask Group 22"><g data-name="Group 193" clip-path="url(#ca)"><path data-name="Path 241" d="M10 0C7.286 0 6.945.012 5.879.06A7.368 7.368 0 003.45.525a4.9 4.9 0 00-1.771 1.154A4.909 4.909 0 00.525 3.45 7.325 7.325 0 00.06 5.875C.012 6.944 0 7.284 0 10s.012 3.055.06 4.121a7.367 7.367 0 00.465 2.429 5.12 5.12 0 002.924 2.925 7.341 7.341 0 002.427.465c1.068.047 1.408.06 4.124.06s3.055-.013 4.123-.06a7.382 7.382 0 002.429-.465 5.12 5.12 0 002.924-2.925 7.4 7.4 0 00.465-2.428c.047-1.066.06-1.406.06-4.122s-.013-3.056-.06-4.124a7.391 7.391 0 00-.465-2.426 4.907 4.907 0 00-1.154-1.771A4.889 4.889 0 0016.55.525 7.357 7.357 0 0014.121.06C13.054.012 12.715 0 10 0zm-.9 1.8h.9c2.67 0 2.986.009 4.04.058a5.542 5.542 0 011.86.342 3.1 3.1 0 011.15.749A3.09 3.09 0 0117.8 4.1a5.493 5.493 0 01.344 1.856c.049 1.054.059 1.37.059 4.039s-.01 2.986-.059 4.04a5.532 5.532 0 01-.344 1.856 3.314 3.314 0 01-1.9 1.9 5.5 5.5 0 01-1.856.345c-1.054.048-1.37.059-4.04.059s-2.988-.011-4.041-.059A5.523 5.523 0 014.1 17.79a3.1 3.1 0 01-1.15-.748 3.1 3.1 0 01-.75-1.15 5.525 5.525 0 01-.344-1.856c-.048-1.054-.058-1.37-.058-4.041s.01-2.985.058-4.039A5.533 5.533 0 012.205 4.1a3.1 3.1 0 01.749-1.15A3.09 3.09 0 014.1 2.2a5.523 5.523 0 011.86-.344C6.883 1.814 7.24 1.8 9.1 1.8zm6.235 1.66a1.2 1.2 0 101.2 1.2 1.2 1.2 0 00-1.2-1.2zM10 4.865A5.136 5.136 0 1015.137 10 5.135 5.135 0 0010 4.865zm0 1.8A3.334 3.334 0 116.667 10 3.334 3.334 0 0110 6.666z" fill="#3f3f3f"/></g></g></svg><svg viewBox="0 0 20 19.72" id="i-linkedin" xmlns="http://www.w3.org/2000/svg"><defs><clipPath id="da"><path data-name="Rectangle 85" fill="#3f3f3f" d="M0 0h20v19.72H0z"/></clipPath></defs><g data-name="Group 230" clip-path="url(#da)" fill="#3f3f3f"><path data-name="Path 243" d="M4.529 2.138a2.132 2.132 0 01-2.307 2.138A2.107 2.107 0 010 2.138 2.123 2.123 0 012.278 0a2.115 2.115 0 012.251 2.138M.112 5.964h4.276V19.72H.112z"/><path data-name="Path 244" d="M6.947 10.352c0-1.716-.056-3.15-.112-4.388h3.713l.2 1.913h.084a4.94 4.94 0 014.248-2.222c2.813 0 4.923 1.885 4.923 5.936v8.13h-4.279v-7.625c0-1.772-.619-2.982-2.166-2.982a2.348 2.348 0 00-2.194 1.6 3.083 3.083 0 00-.141 1.069v7.933H6.947z"/></g></svg><svg fill="none" viewBox="0 0 18 18" id="i-search" xmlns="http://www.w3.org/2000/svg"><g opacity=".5" stroke="#000" stroke-width="2" stroke-linecap="round" stroke-linejoin="round"><path d="M8.156 14.063a5.906 5.906 0 100-11.813 5.906 5.906 0 000 11.813zM12.332 12.333l3.417 3.417"/></g></svg><svg viewBox="0 0 21.818 20" id="i-twitter" xmlns="http://www.w3.org/2000/svg"><path data-name="33613851-d720-4cd7-9db0-450f1e3d3bfe" d="M20.909 1.853a9.9 9.9 0 01-2.854 1.391 4.073 4.073 0 00-7.146 2.727v.91a9.691 9.691 0 01-8.182-4.119s-3.636 8.182 4.546 11.819a10.59 10.59 0 01-6.364 1.818c8.182 4.545 18.182 0 18.182-10.455a4.056 4.056 0 00-.073-.754 7.017 7.017 0 001.891-3.337z" fill="none" stroke="#3f3f3f" stroke-linecap="round" stroke-linejoin="round" stroke-width="1.818"/></svg><svg viewBox="0 0 21.818 20" id="i-youtube" xmlns="http://www.w3.org/2000/svg"><path data-name="0cfe8d31-26a4-43bf-ba92-305ab04d1f57" d="M20.491 5.173a2.528 2.528 0 00-1.764-1.818 65.412 65.412 0 00-7.817-.382s-6.255 0-7.818.418a2.529 2.529 0 00-1.764 1.818 26.379 26.379 0 00-.418 4.809 26.4 26.4 0 00.418 4.845 2.526 2.526 0 001.764 1.746c1.563.418 7.818.418 7.818.418s6.254 0 7.817-.418a2.529 2.529 0 001.764-1.818 26.344 26.344 0 00.418-4.773 26.416 26.416 0 00-.418-4.845z" fill="none" stroke="#3f3f3f" stroke-linecap="round" stroke-linejoin="round" stroke-width="1.818"/><path d="M8.864 12.991l5.227-2.973-5.227-2.972z" fill="#3f3f3f"/></svg></defs></svg>